<mxfile host="app.diagrams.net" modified="2021-06-15T05:54:25.493Z" agent="5.0 (Windows NT 10.0; Win64; x64) AppleWebKit/537.36 (KHTML, like Gecko) Chrome/91.0.4472.106 Safari/537.36" etag="xa0zQyFbXccsKDlPSYe_" version="14.7.7" type="github">
  <diagram id="R2lEEEUBdFMjLlhIrx00" name="Page-1">
    <mxGraphModel dx="996" dy="1748" grid="1" gridSize="10" guides="1" tooltips="1" connect="1" arrows="1" fold="1" page="1" pageScale="1" pageWidth="850" pageHeight="1100" math="0" shadow="0" extFonts="Permanent Marker^https://fonts.googleapis.com/css?family=Permanent+Marker">
      <root>
        <mxCell id="0" />
        <mxCell id="1" parent="0" />
        <mxCell id="cVKj1Lbu5gOnooN9UQbO-29" value="" style="edgeStyle=entityRelationEdgeStyle;fontSize=12;html=1;endArrow=ERzeroToMany;startArrow=ERmandOne;exitX=1;exitY=0.5;exitDx=0;exitDy=0;entryX=0;entryY=0.5;entryDx=0;entryDy=0;" parent="1" source="cVKj1Lbu5gOnooN9UQbO-3" target="cVKj1Lbu5gOnooN9UQbO-19" edge="1">
          <mxGeometry width="100" height="100" relative="1" as="geometry">
            <mxPoint x="360" y="370" as="sourcePoint" />
            <mxPoint x="460" y="270" as="targetPoint" />
          </mxGeometry>
        </mxCell>
        <mxCell id="cVKj1Lbu5gOnooN9UQbO-44" value="" style="edgeStyle=entityRelationEdgeStyle;fontSize=12;html=1;endArrow=ERzeroToMany;startArrow=ERmandOne;exitX=1;exitY=0.5;exitDx=0;exitDy=0;entryX=0;entryY=0.5;entryDx=0;entryDy=0;" parent="1" source="cVKj1Lbu5gOnooN9UQbO-3" target="cVKj1Lbu5gOnooN9UQbO-38" edge="1">
          <mxGeometry width="100" height="100" relative="1" as="geometry">
            <mxPoint x="470" y="360" as="sourcePoint" />
            <mxPoint x="570" y="260" as="targetPoint" />
          </mxGeometry>
        </mxCell>
        <mxCell id="cVKj1Lbu5gOnooN9UQbO-45" value="" style="edgeStyle=entityRelationEdgeStyle;fontSize=12;html=1;endArrow=ERzeroToMany;startArrow=ERmandOne;exitX=1;exitY=0.5;exitDx=0;exitDy=0;entryX=1;entryY=0.5;entryDx=0;entryDy=0;" parent="1" source="cVKj1Lbu5gOnooN9UQbO-16" target="cVKj1Lbu5gOnooN9UQbO-35" edge="1">
          <mxGeometry width="100" height="100" relative="1" as="geometry">
            <mxPoint x="300" y="165" as="sourcePoint" />
            <mxPoint x="390" y="455" as="targetPoint" />
          </mxGeometry>
        </mxCell>
        <mxCell id="cVKj1Lbu5gOnooN9UQbO-59" value="" style="edgeStyle=entityRelationEdgeStyle;fontSize=12;html=1;endArrow=ERzeroToMany;startArrow=ERmandOne;exitX=1;exitY=0.5;exitDx=0;exitDy=0;entryX=0;entryY=0.5;entryDx=0;entryDy=0;" parent="1" source="cVKj1Lbu5gOnooN9UQbO-32" target="cVKj1Lbu5gOnooN9UQbO-50" edge="1">
          <mxGeometry width="100" height="100" relative="1" as="geometry">
            <mxPoint x="560" y="330" as="sourcePoint" />
            <mxPoint x="650" y="620" as="targetPoint" />
          </mxGeometry>
        </mxCell>
        <mxCell id="cVKj1Lbu5gOnooN9UQbO-73" value="" style="edgeStyle=entityRelationEdgeStyle;fontSize=12;html=1;endArrow=ERzeroToMany;startArrow=ERmandOne;exitX=1;exitY=0.5;exitDx=0;exitDy=0;entryX=1;entryY=0.5;entryDx=0;entryDy=0;" parent="1" source="cVKj1Lbu5gOnooN9UQbO-32" target="cVKj1Lbu5gOnooN9UQbO-64" edge="1">
          <mxGeometry width="100" height="100" relative="1" as="geometry">
            <mxPoint x="610" y="595" as="sourcePoint" />
            <mxPoint x="800" y="740" as="targetPoint" />
          </mxGeometry>
        </mxCell>
        <mxCell id="cVKj1Lbu5gOnooN9UQbO-74" value="" style="edgeStyle=entityRelationEdgeStyle;fontSize=12;html=1;endArrow=ERzeroToMany;startArrow=ERmandOne;exitX=0;exitY=0.5;exitDx=0;exitDy=0;" parent="1" source="cVKj1Lbu5gOnooN9UQbO-47" target="CJrxKydq7ZJFIGbYicGT-1" edge="1">
          <mxGeometry width="100" height="100" relative="1" as="geometry">
            <mxPoint x="690" y="460" as="sourcePoint" />
            <mxPoint x="850" y="790" as="targetPoint" />
          </mxGeometry>
        </mxCell>
        <mxCell id="cVKj1Lbu5gOnooN9UQbO-88" value="" style="edgeStyle=entityRelationEdgeStyle;fontSize=12;html=1;endArrow=ERzeroToMany;startArrow=ERmandOne;entryX=1;entryY=0.5;entryDx=0;entryDy=0;exitX=1;exitY=0.5;exitDx=0;exitDy=0;" parent="1" source="cVKj1Lbu5gOnooN9UQbO-47" target="cVKj1Lbu5gOnooN9UQbO-79" edge="1">
          <mxGeometry width="100" height="100" relative="1" as="geometry">
            <mxPoint x="1060" y="470" as="sourcePoint" />
            <mxPoint x="860" y="830" as="targetPoint" />
          </mxGeometry>
        </mxCell>
        <mxCell id="cVKj1Lbu5gOnooN9UQbO-90" value="" style="edgeStyle=entityRelationEdgeStyle;fontSize=12;html=1;endArrow=ERzeroToMany;startArrow=ERmandOne;exitX=1;exitY=0.5;exitDx=0;exitDy=0;entryX=0;entryY=0.5;entryDx=0;entryDy=0;" parent="1" source="cVKj1Lbu5gOnooN9UQbO-32" target="cVKj1Lbu5gOnooN9UQbO-82" edge="1">
          <mxGeometry width="100" height="100" relative="1" as="geometry">
            <mxPoint x="560" y="390" as="sourcePoint" />
            <mxPoint x="760" y="450" as="targetPoint" />
          </mxGeometry>
        </mxCell>
        <mxCell id="cVKj1Lbu5gOnooN9UQbO-104" value="" style="edgeStyle=entityRelationEdgeStyle;fontSize=12;html=1;endArrow=ERzeroToMany;startArrow=ERmandOne;entryX=1;entryY=0.5;entryDx=0;entryDy=0;exitX=0;exitY=0.5;exitDx=0;exitDy=0;" parent="1" source="cVKj1Lbu5gOnooN9UQbO-61" target="cVKj1Lbu5gOnooN9UQbO-95" edge="1">
          <mxGeometry width="100" height="100" relative="1" as="geometry">
            <mxPoint x="330" y="690" as="sourcePoint" />
            <mxPoint x="130" y="1050" as="targetPoint" />
          </mxGeometry>
        </mxCell>
        <mxCell id="cVKj1Lbu5gOnooN9UQbO-118" value="" style="edgeStyle=entityRelationEdgeStyle;fontSize=12;html=1;endArrow=ERzeroToMany;startArrow=ERmandOne;entryX=1;entryY=0.5;entryDx=0;entryDy=0;exitX=0;exitY=0.5;exitDx=0;exitDy=0;" parent="1" source="cVKj1Lbu5gOnooN9UQbO-61" target="cVKj1Lbu5gOnooN9UQbO-109" edge="1">
          <mxGeometry width="100" height="100" relative="1" as="geometry">
            <mxPoint x="350" y="535" as="sourcePoint" />
            <mxPoint x="220" y="565" as="targetPoint" />
          </mxGeometry>
        </mxCell>
        <mxCell id="cVKj1Lbu5gOnooN9UQbO-123" value="" style="group" parent="1" vertex="1" connectable="0">
          <mxGeometry x="760" y="600" width="180" height="290" as="geometry" />
        </mxCell>
        <mxCell id="cVKj1Lbu5gOnooN9UQbO-127" value="" style="shape=partialRectangle;collapsible=0;dropTarget=0;pointerEvents=0;fillColor=none;top=0;left=0;bottom=0;right=0;points=[[0,0.5],[1,0.5]];portConstraint=eastwest;" parent="cVKj1Lbu5gOnooN9UQbO-123" vertex="1">
          <mxGeometry y="210" width="180" height="30" as="geometry" />
        </mxCell>
        <mxCell id="cVKj1Lbu5gOnooN9UQbO-128" value="" style="shape=partialRectangle;connectable=0;fillColor=none;top=0;left=0;bottom=0;right=0;editable=1;overflow=hidden;" parent="cVKj1Lbu5gOnooN9UQbO-127" vertex="1">
          <mxGeometry width="30" height="30" as="geometry" />
        </mxCell>
        <mxCell id="cVKj1Lbu5gOnooN9UQbO-129" value="" style="shape=partialRectangle;connectable=0;fillColor=none;top=0;left=0;bottom=0;right=0;align=left;spacingLeft=6;overflow=hidden;" parent="cVKj1Lbu5gOnooN9UQbO-127" vertex="1">
          <mxGeometry x="30" width="150" height="30" as="geometry" />
        </mxCell>
        <mxCell id="cVKj1Lbu5gOnooN9UQbO-173" value="" style="group" parent="cVKj1Lbu5gOnooN9UQbO-123" vertex="1" connectable="0">
          <mxGeometry width="180" height="290" as="geometry" />
        </mxCell>
        <mxCell id="cVKj1Lbu5gOnooN9UQbO-174" value="" style="group" parent="cVKj1Lbu5gOnooN9UQbO-173" vertex="1" connectable="0">
          <mxGeometry width="180" height="290" as="geometry" />
        </mxCell>
        <mxCell id="cVKj1Lbu5gOnooN9UQbO-138" value="" style="group" parent="cVKj1Lbu5gOnooN9UQbO-174" vertex="1" connectable="0">
          <mxGeometry width="180" height="290" as="geometry" />
        </mxCell>
        <mxCell id="cVKj1Lbu5gOnooN9UQbO-130" value="" style="shape=partialRectangle;collapsible=0;dropTarget=0;pointerEvents=0;fillColor=none;top=0;left=0;bottom=0;right=0;points=[[0,0.5],[1,0.5]];portConstraint=eastwest;" parent="cVKj1Lbu5gOnooN9UQbO-138" vertex="1">
          <mxGeometry y="240" width="180" height="30" as="geometry" />
        </mxCell>
        <mxCell id="cVKj1Lbu5gOnooN9UQbO-131" value="" style="shape=partialRectangle;connectable=0;fillColor=none;top=0;left=0;bottom=0;right=0;editable=1;overflow=hidden;" parent="cVKj1Lbu5gOnooN9UQbO-130" vertex="1">
          <mxGeometry width="30" height="30" as="geometry" />
        </mxCell>
        <mxCell id="cVKj1Lbu5gOnooN9UQbO-132" value="" style="shape=partialRectangle;connectable=0;fillColor=none;top=0;left=0;bottom=0;right=0;align=left;spacingLeft=6;overflow=hidden;" parent="cVKj1Lbu5gOnooN9UQbO-130" vertex="1">
          <mxGeometry x="30" width="150" height="30" as="geometry" />
        </mxCell>
        <mxCell id="cVKj1Lbu5gOnooN9UQbO-137" value="" style="group" parent="cVKj1Lbu5gOnooN9UQbO-138" vertex="1" connectable="0">
          <mxGeometry width="180" height="290" as="geometry" />
        </mxCell>
        <mxCell id="cVKj1Lbu5gOnooN9UQbO-124" value="" style="shape=partialRectangle;collapsible=0;dropTarget=0;pointerEvents=0;fillColor=none;top=0;left=0;bottom=0;right=0;points=[[0,0.5],[1,0.5]];portConstraint=eastwest;" parent="cVKj1Lbu5gOnooN9UQbO-137" vertex="1">
          <mxGeometry y="180" width="180" height="30" as="geometry" />
        </mxCell>
        <mxCell id="cVKj1Lbu5gOnooN9UQbO-125" value="FK" style="shape=partialRectangle;connectable=0;fillColor=none;top=0;left=0;bottom=0;right=0;editable=1;overflow=hidden;" parent="cVKj1Lbu5gOnooN9UQbO-124" vertex="1">
          <mxGeometry width="30" height="30" as="geometry" />
        </mxCell>
        <mxCell id="cVKj1Lbu5gOnooN9UQbO-126" value="Attachment ID" style="shape=partialRectangle;connectable=0;fillColor=none;top=0;left=0;bottom=0;right=0;align=left;spacingLeft=6;overflow=hidden;" parent="cVKj1Lbu5gOnooN9UQbO-124" vertex="1">
          <mxGeometry x="30" width="150" height="30" as="geometry" />
        </mxCell>
        <mxCell id="cVKj1Lbu5gOnooN9UQbO-136" value="" style="group" parent="cVKj1Lbu5gOnooN9UQbO-137" vertex="1" connectable="0">
          <mxGeometry width="180" height="290" as="geometry" />
        </mxCell>
        <mxCell id="cVKj1Lbu5gOnooN9UQbO-75" value="Team Activity" style="shape=table;startSize=30;container=1;collapsible=1;childLayout=tableLayout;fixedRows=1;rowLines=0;fontStyle=1;align=center;resizeLast=1;rounded=0;sketch=0;" parent="cVKj1Lbu5gOnooN9UQbO-136" vertex="1">
          <mxGeometry width="180" height="290" as="geometry" />
        </mxCell>
        <mxCell id="cVKj1Lbu5gOnooN9UQbO-76" value="" style="shape=partialRectangle;collapsible=0;dropTarget=0;pointerEvents=0;fillColor=none;top=0;left=0;bottom=1;right=0;points=[[0,0.5],[1,0.5]];portConstraint=eastwest;" parent="cVKj1Lbu5gOnooN9UQbO-75" vertex="1">
          <mxGeometry y="30" width="180" height="30" as="geometry" />
        </mxCell>
        <mxCell id="cVKj1Lbu5gOnooN9UQbO-77" value="PK" style="shape=partialRectangle;connectable=0;fillColor=none;top=0;left=0;bottom=0;right=0;fontStyle=1;overflow=hidden;" parent="cVKj1Lbu5gOnooN9UQbO-76" vertex="1">
          <mxGeometry width="30" height="30" as="geometry" />
        </mxCell>
        <mxCell id="cVKj1Lbu5gOnooN9UQbO-78" value="ID" style="shape=partialRectangle;connectable=0;fillColor=none;top=0;left=0;bottom=0;right=0;align=left;spacingLeft=6;fontStyle=5;overflow=hidden;" parent="cVKj1Lbu5gOnooN9UQbO-76" vertex="1">
          <mxGeometry x="30" width="150" height="30" as="geometry" />
        </mxCell>
        <mxCell id="cVKj1Lbu5gOnooN9UQbO-79" value="" style="shape=partialRectangle;collapsible=0;dropTarget=0;pointerEvents=0;fillColor=none;top=0;left=0;bottom=0;right=0;points=[[0,0.5],[1,0.5]];portConstraint=eastwest;" parent="cVKj1Lbu5gOnooN9UQbO-75" vertex="1">
          <mxGeometry y="60" width="180" height="30" as="geometry" />
        </mxCell>
        <mxCell id="cVKj1Lbu5gOnooN9UQbO-80" value="FK" style="shape=partialRectangle;connectable=0;fillColor=none;top=0;left=0;bottom=0;right=0;editable=1;overflow=hidden;" parent="cVKj1Lbu5gOnooN9UQbO-79" vertex="1">
          <mxGeometry width="30" height="30" as="geometry" />
        </mxCell>
        <mxCell id="cVKj1Lbu5gOnooN9UQbO-81" value="Board ID" style="shape=partialRectangle;connectable=0;fillColor=none;top=0;left=0;bottom=0;right=0;align=left;spacingLeft=6;overflow=hidden;" parent="cVKj1Lbu5gOnooN9UQbO-79" vertex="1">
          <mxGeometry x="30" width="150" height="30" as="geometry" />
        </mxCell>
        <mxCell id="cVKj1Lbu5gOnooN9UQbO-82" value="" style="shape=partialRectangle;collapsible=0;dropTarget=0;pointerEvents=0;fillColor=none;top=0;left=0;bottom=0;right=0;points=[[0,0.5],[1,0.5]];portConstraint=eastwest;" parent="cVKj1Lbu5gOnooN9UQbO-75" vertex="1">
          <mxGeometry y="90" width="180" height="30" as="geometry" />
        </mxCell>
        <mxCell id="cVKj1Lbu5gOnooN9UQbO-83" value="FK" style="shape=partialRectangle;connectable=0;fillColor=none;top=0;left=0;bottom=0;right=0;editable=1;overflow=hidden;" parent="cVKj1Lbu5gOnooN9UQbO-82" vertex="1">
          <mxGeometry width="30" height="30" as="geometry" />
        </mxCell>
        <mxCell id="cVKj1Lbu5gOnooN9UQbO-84" value="Team Member ID" style="shape=partialRectangle;connectable=0;fillColor=none;top=0;left=0;bottom=0;right=0;align=left;spacingLeft=6;overflow=hidden;" parent="cVKj1Lbu5gOnooN9UQbO-82" vertex="1">
          <mxGeometry x="30" width="150" height="30" as="geometry" />
        </mxCell>
        <mxCell id="cVKj1Lbu5gOnooN9UQbO-85" value="" style="shape=partialRectangle;collapsible=0;dropTarget=0;pointerEvents=0;fillColor=none;top=0;left=0;bottom=0;right=0;points=[[0,0.5],[1,0.5]];portConstraint=eastwest;" parent="cVKj1Lbu5gOnooN9UQbO-75" vertex="1">
          <mxGeometry y="120" width="180" height="30" as="geometry" />
        </mxCell>
        <mxCell id="cVKj1Lbu5gOnooN9UQbO-86" value="FK" style="shape=partialRectangle;connectable=0;fillColor=none;top=0;left=0;bottom=0;right=0;editable=1;overflow=hidden;" parent="cVKj1Lbu5gOnooN9UQbO-85" vertex="1">
          <mxGeometry width="30" height="30" as="geometry" />
        </mxCell>
        <mxCell id="cVKj1Lbu5gOnooN9UQbO-87" value="Card ID" style="shape=partialRectangle;connectable=0;fillColor=none;top=0;left=0;bottom=0;right=0;align=left;spacingLeft=6;overflow=hidden;" parent="cVKj1Lbu5gOnooN9UQbO-85" vertex="1">
          <mxGeometry x="30" width="150" height="30" as="geometry" />
        </mxCell>
        <mxCell id="cVKj1Lbu5gOnooN9UQbO-119" value="" style="shape=partialRectangle;collapsible=0;dropTarget=0;pointerEvents=0;fillColor=none;top=0;left=0;bottom=0;right=0;points=[[0,0.5],[1,0.5]];portConstraint=eastwest;" parent="cVKj1Lbu5gOnooN9UQbO-136" vertex="1">
          <mxGeometry y="150" width="180" height="30" as="geometry" />
        </mxCell>
        <mxCell id="cVKj1Lbu5gOnooN9UQbO-120" value="FK" style="shape=partialRectangle;connectable=0;fillColor=none;top=0;left=0;bottom=0;right=0;editable=1;overflow=hidden;" parent="cVKj1Lbu5gOnooN9UQbO-119" vertex="1">
          <mxGeometry width="30" height="30" as="geometry" />
        </mxCell>
        <mxCell id="cVKj1Lbu5gOnooN9UQbO-121" value="Reply ID" style="shape=partialRectangle;connectable=0;fillColor=none;top=0;left=0;bottom=0;right=0;align=left;spacingLeft=6;overflow=hidden;" parent="cVKj1Lbu5gOnooN9UQbO-119" vertex="1">
          <mxGeometry x="30" width="150" height="30" as="geometry" />
        </mxCell>
        <mxCell id="cVKj1Lbu5gOnooN9UQbO-170" value="" style="shape=partialRectangle;collapsible=0;dropTarget=0;pointerEvents=0;fillColor=none;top=0;left=0;bottom=0;right=0;points=[[0,0.5],[1,0.5]];portConstraint=eastwest;" parent="cVKj1Lbu5gOnooN9UQbO-138" vertex="1">
          <mxGeometry y="239.99526315789467" width="180" height="28.421052631578945" as="geometry" />
        </mxCell>
        <mxCell id="cVKj1Lbu5gOnooN9UQbO-171" value="" style="shape=partialRectangle;connectable=0;fillColor=none;top=0;left=0;bottom=0;right=0;editable=1;overflow=hidden;" parent="cVKj1Lbu5gOnooN9UQbO-170" vertex="1">
          <mxGeometry width="30" height="28.421052631578945" as="geometry" />
        </mxCell>
        <mxCell id="cVKj1Lbu5gOnooN9UQbO-172" value="Date" style="shape=partialRectangle;connectable=0;fillColor=none;top=0;left=0;bottom=0;right=0;align=left;spacingLeft=6;overflow=hidden;" parent="cVKj1Lbu5gOnooN9UQbO-170" vertex="1">
          <mxGeometry x="30" width="150" height="28.421052631578945" as="geometry" />
        </mxCell>
        <mxCell id="cVKj1Lbu5gOnooN9UQbO-167" value="" style="shape=partialRectangle;collapsible=0;dropTarget=0;pointerEvents=0;fillColor=none;top=0;left=0;bottom=0;right=0;points=[[0,0.5],[1,0.5]];portConstraint=eastwest;" parent="cVKj1Lbu5gOnooN9UQbO-174" vertex="1">
          <mxGeometry y="209.99526315789467" width="180" height="28.421052631578945" as="geometry" />
        </mxCell>
        <mxCell id="cVKj1Lbu5gOnooN9UQbO-168" value="" style="shape=partialRectangle;connectable=0;fillColor=none;top=0;left=0;bottom=0;right=0;editable=1;overflow=hidden;" parent="cVKj1Lbu5gOnooN9UQbO-167" vertex="1">
          <mxGeometry width="30" height="28.421052631578945" as="geometry" />
        </mxCell>
        <mxCell id="cVKj1Lbu5gOnooN9UQbO-169" value="Detail" style="shape=partialRectangle;connectable=0;fillColor=none;top=0;left=0;bottom=0;right=0;align=left;spacingLeft=6;overflow=hidden;" parent="cVKj1Lbu5gOnooN9UQbO-167" vertex="1">
          <mxGeometry x="30" width="150" height="28.421052631578945" as="geometry" />
        </mxCell>
        <mxCell id="cVKj1Lbu5gOnooN9UQbO-139" value="" style="edgeStyle=entityRelationEdgeStyle;fontSize=12;html=1;endArrow=ERmandOne;startArrow=ERmandOne;entryX=0;entryY=0.5;entryDx=0;entryDy=0;exitX=1;exitY=0.5;exitDx=0;exitDy=0;" parent="1" source="cVKj1Lbu5gOnooN9UQbO-92" target="cVKj1Lbu5gOnooN9UQbO-119" edge="1">
          <mxGeometry width="100" height="100" relative="1" as="geometry">
            <mxPoint x="570" y="890" as="sourcePoint" />
            <mxPoint x="700" y="780" as="targetPoint" />
          </mxGeometry>
        </mxCell>
        <mxCell id="cVKj1Lbu5gOnooN9UQbO-140" value="" style="edgeStyle=entityRelationEdgeStyle;fontSize=12;html=1;endArrow=ERmandOne;startArrow=ERmandOne;entryX=0;entryY=0.5;entryDx=0;entryDy=0;exitX=1;exitY=0.5;exitDx=0;exitDy=0;" parent="1" source="cVKj1Lbu5gOnooN9UQbO-61" target="cVKj1Lbu5gOnooN9UQbO-85" edge="1">
          <mxGeometry width="100" height="100" relative="1" as="geometry">
            <mxPoint x="600" y="850" as="sourcePoint" />
            <mxPoint x="730" y="740" as="targetPoint" />
          </mxGeometry>
        </mxCell>
        <mxCell id="cVKj1Lbu5gOnooN9UQbO-141" value="" style="edgeStyle=entityRelationEdgeStyle;fontSize=12;html=1;endArrow=ERmandOne;startArrow=ERmandOne;exitX=1;exitY=0.5;exitDx=0;exitDy=0;" parent="1" source="cVKj1Lbu5gOnooN9UQbO-106" edge="1">
          <mxGeometry width="100" height="100" relative="1" as="geometry">
            <mxPoint x="590" y="970" as="sourcePoint" />
            <mxPoint x="760" y="800" as="targetPoint" />
          </mxGeometry>
        </mxCell>
        <mxCell id="cVKj1Lbu5gOnooN9UQbO-154" value="" style="group" parent="1" vertex="1" connectable="0">
          <mxGeometry x="70" y="70" width="180" height="240" as="geometry" />
        </mxCell>
        <mxCell id="cVKj1Lbu5gOnooN9UQbO-148" value="" style="shape=partialRectangle;collapsible=0;dropTarget=0;pointerEvents=0;fillColor=none;top=0;left=0;bottom=0;right=0;points=[[0,0.5],[1,0.5]];portConstraint=eastwest;" parent="cVKj1Lbu5gOnooN9UQbO-154" vertex="1">
          <mxGeometry y="210" width="180" height="30" as="geometry" />
        </mxCell>
        <mxCell id="cVKj1Lbu5gOnooN9UQbO-149" value="" style="shape=partialRectangle;connectable=0;fillColor=none;top=0;left=0;bottom=0;right=0;editable=1;overflow=hidden;" parent="cVKj1Lbu5gOnooN9UQbO-148" vertex="1">
          <mxGeometry width="30" height="30" as="geometry" />
        </mxCell>
        <mxCell id="cVKj1Lbu5gOnooN9UQbO-150" value="Date" style="shape=partialRectangle;connectable=0;fillColor=none;top=0;left=0;bottom=0;right=0;align=left;spacingLeft=6;overflow=hidden;" parent="cVKj1Lbu5gOnooN9UQbO-148" vertex="1">
          <mxGeometry x="30" width="150" height="30" as="geometry" />
        </mxCell>
        <mxCell id="cVKj1Lbu5gOnooN9UQbO-153" value="" style="group" parent="cVKj1Lbu5gOnooN9UQbO-154" vertex="1" connectable="0">
          <mxGeometry width="180" height="240" as="geometry" />
        </mxCell>
        <mxCell id="cVKj1Lbu5gOnooN9UQbO-145" value="" style="shape=partialRectangle;collapsible=0;dropTarget=0;pointerEvents=0;fillColor=none;top=0;left=0;bottom=0;right=0;points=[[0,0.5],[1,0.5]];portConstraint=eastwest;" parent="cVKj1Lbu5gOnooN9UQbO-153" vertex="1">
          <mxGeometry y="180" width="180" height="30" as="geometry" />
        </mxCell>
        <mxCell id="cVKj1Lbu5gOnooN9UQbO-146" value="" style="shape=partialRectangle;connectable=0;fillColor=none;top=0;left=0;bottom=0;right=0;editable=1;overflow=hidden;" parent="cVKj1Lbu5gOnooN9UQbO-145" vertex="1">
          <mxGeometry width="30" height="30" as="geometry" />
        </mxCell>
        <mxCell id="cVKj1Lbu5gOnooN9UQbO-147" value="State" style="shape=partialRectangle;connectable=0;fillColor=none;top=0;left=0;bottom=0;right=0;align=left;spacingLeft=6;overflow=hidden;" parent="cVKj1Lbu5gOnooN9UQbO-145" vertex="1">
          <mxGeometry x="30" width="150" height="30" as="geometry" />
        </mxCell>
        <mxCell id="cVKj1Lbu5gOnooN9UQbO-152" value="" style="group" parent="cVKj1Lbu5gOnooN9UQbO-153" vertex="1" connectable="0">
          <mxGeometry width="180" height="240" as="geometry" />
        </mxCell>
        <mxCell id="cVKj1Lbu5gOnooN9UQbO-2" value="User" style="shape=table;startSize=30;container=1;collapsible=1;childLayout=tableLayout;fixedRows=1;rowLines=0;fontStyle=1;align=center;resizeLast=1;" parent="cVKj1Lbu5gOnooN9UQbO-152" vertex="1">
          <mxGeometry width="180" height="240" as="geometry" />
        </mxCell>
        <mxCell id="cVKj1Lbu5gOnooN9UQbO-3" value="" style="shape=partialRectangle;collapsible=0;dropTarget=0;pointerEvents=0;fillColor=none;top=0;left=0;bottom=1;right=0;points=[[0,0.5],[1,0.5]];portConstraint=eastwest;" parent="cVKj1Lbu5gOnooN9UQbO-2" vertex="1">
          <mxGeometry y="30" width="180" height="30" as="geometry" />
        </mxCell>
        <mxCell id="cVKj1Lbu5gOnooN9UQbO-4" value="PK" style="shape=partialRectangle;connectable=0;fillColor=none;top=0;left=0;bottom=0;right=0;fontStyle=1;overflow=hidden;" parent="cVKj1Lbu5gOnooN9UQbO-3" vertex="1">
          <mxGeometry width="30" height="30" as="geometry" />
        </mxCell>
        <mxCell id="cVKj1Lbu5gOnooN9UQbO-5" value="ID" style="shape=partialRectangle;connectable=0;fillColor=none;top=0;left=0;bottom=0;right=0;align=left;spacingLeft=6;fontStyle=5;overflow=hidden;" parent="cVKj1Lbu5gOnooN9UQbO-3" vertex="1">
          <mxGeometry x="30" width="150" height="30" as="geometry" />
        </mxCell>
        <mxCell id="cVKj1Lbu5gOnooN9UQbO-6" value="" style="shape=partialRectangle;collapsible=0;dropTarget=0;pointerEvents=0;fillColor=none;top=0;left=0;bottom=0;right=0;points=[[0,0.5],[1,0.5]];portConstraint=eastwest;" parent="cVKj1Lbu5gOnooN9UQbO-2" vertex="1">
          <mxGeometry y="60" width="180" height="30" as="geometry" />
        </mxCell>
        <mxCell id="cVKj1Lbu5gOnooN9UQbO-7" value="" style="shape=partialRectangle;connectable=0;fillColor=none;top=0;left=0;bottom=0;right=0;editable=1;overflow=hidden;" parent="cVKj1Lbu5gOnooN9UQbO-6" vertex="1">
          <mxGeometry width="30" height="30" as="geometry" />
        </mxCell>
        <mxCell id="cVKj1Lbu5gOnooN9UQbO-8" value="Email" style="shape=partialRectangle;connectable=0;fillColor=none;top=0;left=0;bottom=0;right=0;align=left;spacingLeft=6;overflow=hidden;" parent="cVKj1Lbu5gOnooN9UQbO-6" vertex="1">
          <mxGeometry x="30" width="150" height="30" as="geometry" />
        </mxCell>
        <mxCell id="cVKj1Lbu5gOnooN9UQbO-9" value="" style="shape=partialRectangle;collapsible=0;dropTarget=0;pointerEvents=0;fillColor=none;top=0;left=0;bottom=0;right=0;points=[[0,0.5],[1,0.5]];portConstraint=eastwest;" parent="cVKj1Lbu5gOnooN9UQbO-2" vertex="1">
          <mxGeometry y="90" width="180" height="30" as="geometry" />
        </mxCell>
        <mxCell id="cVKj1Lbu5gOnooN9UQbO-10" value="" style="shape=partialRectangle;connectable=0;fillColor=none;top=0;left=0;bottom=0;right=0;editable=1;overflow=hidden;" parent="cVKj1Lbu5gOnooN9UQbO-9" vertex="1">
          <mxGeometry width="30" height="30" as="geometry" />
        </mxCell>
        <mxCell id="cVKj1Lbu5gOnooN9UQbO-11" value="Password" style="shape=partialRectangle;connectable=0;fillColor=none;top=0;left=0;bottom=0;right=0;align=left;spacingLeft=6;overflow=hidden;" parent="cVKj1Lbu5gOnooN9UQbO-9" vertex="1">
          <mxGeometry x="30" width="150" height="30" as="geometry" />
        </mxCell>
        <mxCell id="cVKj1Lbu5gOnooN9UQbO-12" value="" style="shape=partialRectangle;collapsible=0;dropTarget=0;pointerEvents=0;fillColor=none;top=0;left=0;bottom=0;right=0;points=[[0,0.5],[1,0.5]];portConstraint=eastwest;" parent="cVKj1Lbu5gOnooN9UQbO-2" vertex="1">
          <mxGeometry y="120" width="180" height="30" as="geometry" />
        </mxCell>
        <mxCell id="cVKj1Lbu5gOnooN9UQbO-13" value="" style="shape=partialRectangle;connectable=0;fillColor=none;top=0;left=0;bottom=0;right=0;editable=1;overflow=hidden;" parent="cVKj1Lbu5gOnooN9UQbO-12" vertex="1">
          <mxGeometry width="30" height="30" as="geometry" />
        </mxCell>
        <mxCell id="cVKj1Lbu5gOnooN9UQbO-14" value="Role" style="shape=partialRectangle;connectable=0;fillColor=none;top=0;left=0;bottom=0;right=0;align=left;spacingLeft=6;overflow=hidden;" parent="cVKj1Lbu5gOnooN9UQbO-12" vertex="1">
          <mxGeometry x="30" width="150" height="30" as="geometry" />
        </mxCell>
        <mxCell id="cVKj1Lbu5gOnooN9UQbO-142" value="" style="shape=partialRectangle;collapsible=0;dropTarget=0;pointerEvents=0;fillColor=none;top=0;left=0;bottom=0;right=0;points=[[0,0.5],[1,0.5]];portConstraint=eastwest;" parent="cVKj1Lbu5gOnooN9UQbO-152" vertex="1">
          <mxGeometry y="150" width="180" height="30" as="geometry" />
        </mxCell>
        <mxCell id="cVKj1Lbu5gOnooN9UQbO-143" value="" style="shape=partialRectangle;connectable=0;fillColor=none;top=0;left=0;bottom=0;right=0;editable=1;overflow=hidden;" parent="cVKj1Lbu5gOnooN9UQbO-142" vertex="1">
          <mxGeometry width="30" height="30" as="geometry" />
        </mxCell>
        <mxCell id="cVKj1Lbu5gOnooN9UQbO-144" value="Name" style="shape=partialRectangle;connectable=0;fillColor=none;top=0;left=0;bottom=0;right=0;align=left;spacingLeft=6;overflow=hidden;" parent="cVKj1Lbu5gOnooN9UQbO-142" vertex="1">
          <mxGeometry x="30" width="150" height="30" as="geometry" />
        </mxCell>
        <mxCell id="cVKj1Lbu5gOnooN9UQbO-158" value="" style="group" parent="1" vertex="1" connectable="0">
          <mxGeometry x="380" y="340" width="180" height="220" as="geometry" />
        </mxCell>
        <mxCell id="cVKj1Lbu5gOnooN9UQbO-155" value="" style="shape=partialRectangle;collapsible=0;dropTarget=0;pointerEvents=0;fillColor=none;top=0;left=0;bottom=0;right=0;points=[[0,0.5],[1,0.5]];portConstraint=eastwest;" parent="cVKj1Lbu5gOnooN9UQbO-158" vertex="1">
          <mxGeometry y="176" width="180" height="44" as="geometry" />
        </mxCell>
        <mxCell id="cVKj1Lbu5gOnooN9UQbO-156" value="" style="shape=partialRectangle;connectable=0;fillColor=none;top=0;left=0;bottom=0;right=0;editable=1;overflow=hidden;" parent="cVKj1Lbu5gOnooN9UQbO-155" vertex="1">
          <mxGeometry width="30" height="44" as="geometry" />
        </mxCell>
        <mxCell id="cVKj1Lbu5gOnooN9UQbO-157" value="Date" style="shape=partialRectangle;connectable=0;fillColor=none;top=0;left=0;bottom=0;right=0;align=left;spacingLeft=6;overflow=hidden;" parent="cVKj1Lbu5gOnooN9UQbO-155" vertex="1">
          <mxGeometry x="30" width="150" height="44" as="geometry" />
        </mxCell>
        <mxCell id="cVKj1Lbu5gOnooN9UQbO-187" value="" style="group" parent="cVKj1Lbu5gOnooN9UQbO-158" vertex="1" connectable="0">
          <mxGeometry width="180" height="220" as="geometry" />
        </mxCell>
        <mxCell id="r0ZbA2zNbUxUFIolIvtT-10" value="" style="shape=partialRectangle;collapsible=0;dropTarget=0;pointerEvents=0;fillColor=none;top=0;left=0;bottom=0;right=0;points=[[0,0.5],[1,0.5]];portConstraint=eastwest;" parent="cVKj1Lbu5gOnooN9UQbO-187" vertex="1">
          <mxGeometry y="146.66666666666669" width="180" height="36.66666666666667" as="geometry" />
        </mxCell>
        <mxCell id="r0ZbA2zNbUxUFIolIvtT-11" value="" style="shape=partialRectangle;connectable=0;fillColor=none;top=0;left=0;bottom=0;right=0;editable=1;overflow=hidden;" parent="r0ZbA2zNbUxUFIolIvtT-10" vertex="1">
          <mxGeometry width="30" height="36.66666666666667" as="geometry" />
        </mxCell>
        <mxCell id="r0ZbA2zNbUxUFIolIvtT-12" value="State" style="shape=partialRectangle;connectable=0;fillColor=none;top=0;left=0;bottom=0;right=0;align=left;spacingLeft=6;overflow=hidden;" parent="r0ZbA2zNbUxUFIolIvtT-10" vertex="1">
          <mxGeometry x="30" width="150" height="36.66666666666667" as="geometry" />
        </mxCell>
        <mxCell id="iSMeBKeowd5MEmH3NNFe-23" value="" style="group" parent="cVKj1Lbu5gOnooN9UQbO-187" vertex="1" connectable="0">
          <mxGeometry width="180" height="220" as="geometry" />
        </mxCell>
        <mxCell id="cVKj1Lbu5gOnooN9UQbO-31" value="Team Member" style="shape=table;startSize=30;container=1;collapsible=1;childLayout=tableLayout;fixedRows=1;rowLines=0;fontStyle=1;align=center;resizeLast=1;" parent="iSMeBKeowd5MEmH3NNFe-23" vertex="1">
          <mxGeometry width="180" height="220" as="geometry" />
        </mxCell>
        <mxCell id="cVKj1Lbu5gOnooN9UQbO-32" value="" style="shape=partialRectangle;collapsible=0;dropTarget=0;pointerEvents=0;fillColor=none;top=0;left=0;bottom=1;right=0;points=[[0,0.5],[1,0.5]];portConstraint=eastwest;" parent="cVKj1Lbu5gOnooN9UQbO-31" vertex="1">
          <mxGeometry y="30" width="180" height="30" as="geometry" />
        </mxCell>
        <mxCell id="cVKj1Lbu5gOnooN9UQbO-33" value="PK" style="shape=partialRectangle;connectable=0;fillColor=none;top=0;left=0;bottom=0;right=0;fontStyle=1;overflow=hidden;" parent="cVKj1Lbu5gOnooN9UQbO-32" vertex="1">
          <mxGeometry width="30" height="30" as="geometry" />
        </mxCell>
        <mxCell id="cVKj1Lbu5gOnooN9UQbO-34" value="ID" style="shape=partialRectangle;connectable=0;fillColor=none;top=0;left=0;bottom=0;right=0;align=left;spacingLeft=6;fontStyle=5;overflow=hidden;" parent="cVKj1Lbu5gOnooN9UQbO-32" vertex="1">
          <mxGeometry x="30" width="150" height="30" as="geometry" />
        </mxCell>
        <mxCell id="cVKj1Lbu5gOnooN9UQbO-35" value="" style="shape=partialRectangle;collapsible=0;dropTarget=0;pointerEvents=0;fillColor=none;top=0;left=0;bottom=0;right=0;points=[[0,0.5],[1,0.5]];portConstraint=eastwest;" parent="cVKj1Lbu5gOnooN9UQbO-31" vertex="1">
          <mxGeometry y="60" width="180" height="30" as="geometry" />
        </mxCell>
        <mxCell id="cVKj1Lbu5gOnooN9UQbO-36" value="FK" style="shape=partialRectangle;connectable=0;fillColor=none;top=0;left=0;bottom=0;right=0;editable=1;overflow=hidden;" parent="cVKj1Lbu5gOnooN9UQbO-35" vertex="1">
          <mxGeometry width="30" height="30" as="geometry" />
        </mxCell>
        <mxCell id="cVKj1Lbu5gOnooN9UQbO-37" value="Team ID" style="shape=partialRectangle;connectable=0;fillColor=none;top=0;left=0;bottom=0;right=0;align=left;spacingLeft=6;overflow=hidden;" parent="cVKj1Lbu5gOnooN9UQbO-35" vertex="1">
          <mxGeometry x="30" width="150" height="30" as="geometry" />
        </mxCell>
        <mxCell id="cVKj1Lbu5gOnooN9UQbO-38" value="" style="shape=partialRectangle;collapsible=0;dropTarget=0;pointerEvents=0;fillColor=none;top=0;left=0;bottom=0;right=0;points=[[0,0.5],[1,0.5]];portConstraint=eastwest;" parent="cVKj1Lbu5gOnooN9UQbO-31" vertex="1">
          <mxGeometry y="90" width="180" height="30" as="geometry" />
        </mxCell>
        <mxCell id="cVKj1Lbu5gOnooN9UQbO-39" value="FK" style="shape=partialRectangle;connectable=0;fillColor=none;top=0;left=0;bottom=0;right=0;editable=1;overflow=hidden;" parent="cVKj1Lbu5gOnooN9UQbO-38" vertex="1">
          <mxGeometry width="30" height="30" as="geometry" />
        </mxCell>
        <mxCell id="cVKj1Lbu5gOnooN9UQbO-40" value="User ID" style="shape=partialRectangle;connectable=0;fillColor=none;top=0;left=0;bottom=0;right=0;align=left;spacingLeft=6;overflow=hidden;" parent="cVKj1Lbu5gOnooN9UQbO-38" vertex="1">
          <mxGeometry x="30" width="150" height="30" as="geometry" />
        </mxCell>
        <mxCell id="iSMeBKeowd5MEmH3NNFe-20" value="" style="shape=partialRectangle;collapsible=0;dropTarget=0;pointerEvents=0;fillColor=none;top=0;left=0;bottom=0;right=0;points=[[0,0.5],[1,0.5]];portConstraint=eastwest;" parent="iSMeBKeowd5MEmH3NNFe-23" vertex="1">
          <mxGeometry y="120" width="180" height="35" as="geometry" />
        </mxCell>
        <mxCell id="iSMeBKeowd5MEmH3NNFe-21" value="" style="shape=partialRectangle;connectable=0;fillColor=none;top=0;left=0;bottom=0;right=0;editable=1;overflow=hidden;" parent="iSMeBKeowd5MEmH3NNFe-20" vertex="1">
          <mxGeometry width="30" height="35" as="geometry" />
        </mxCell>
        <mxCell id="iSMeBKeowd5MEmH3NNFe-22" value="Last Connect Date" style="shape=partialRectangle;connectable=0;fillColor=none;top=0;left=0;bottom=0;right=0;align=left;spacingLeft=6;overflow=hidden;" parent="iSMeBKeowd5MEmH3NNFe-20" vertex="1">
          <mxGeometry x="30" width="150" height="35" as="geometry" />
        </mxCell>
        <mxCell id="cVKj1Lbu5gOnooN9UQbO-162" value="" style="group" parent="1" vertex="1" connectable="0">
          <mxGeometry x="380" y="100" width="180" height="220" as="geometry" />
        </mxCell>
        <mxCell id="cVKj1Lbu5gOnooN9UQbO-159" value="" style="shape=partialRectangle;collapsible=0;dropTarget=0;pointerEvents=0;fillColor=none;top=0;left=0;bottom=0;right=0;points=[[0,0.5],[1,0.5]];portConstraint=eastwest;" parent="cVKj1Lbu5gOnooN9UQbO-162" vertex="1">
          <mxGeometry y="185.25865497076026" width="180" height="34.73684210526316" as="geometry" />
        </mxCell>
        <mxCell id="cVKj1Lbu5gOnooN9UQbO-160" value="" style="shape=partialRectangle;connectable=0;fillColor=none;top=0;left=0;bottom=0;right=0;editable=1;overflow=hidden;" parent="cVKj1Lbu5gOnooN9UQbO-159" vertex="1">
          <mxGeometry width="30" height="34.73684210526316" as="geometry" />
        </mxCell>
        <mxCell id="cVKj1Lbu5gOnooN9UQbO-161" value="Date" style="shape=partialRectangle;connectable=0;fillColor=none;top=0;left=0;bottom=0;right=0;align=left;spacingLeft=6;overflow=hidden;" parent="cVKj1Lbu5gOnooN9UQbO-159" vertex="1">
          <mxGeometry x="30" width="150" height="34.73684210526316" as="geometry" />
        </mxCell>
        <mxCell id="cVKj1Lbu5gOnooN9UQbO-183" value="" style="group" parent="cVKj1Lbu5gOnooN9UQbO-162" vertex="1" connectable="0">
          <mxGeometry width="180" height="220" as="geometry" />
        </mxCell>
        <mxCell id="cVKj1Lbu5gOnooN9UQbO-15" value="Team" style="shape=table;startSize=30;container=1;collapsible=1;childLayout=tableLayout;fixedRows=1;rowLines=0;fontStyle=1;align=center;resizeLast=1;" parent="cVKj1Lbu5gOnooN9UQbO-183" vertex="1">
          <mxGeometry width="180" height="220" as="geometry" />
        </mxCell>
        <mxCell id="cVKj1Lbu5gOnooN9UQbO-16" value="" style="shape=partialRectangle;collapsible=0;dropTarget=0;pointerEvents=0;fillColor=none;top=0;left=0;bottom=1;right=0;points=[[0,0.5],[1,0.5]];portConstraint=eastwest;" parent="cVKj1Lbu5gOnooN9UQbO-15" vertex="1">
          <mxGeometry y="30" width="180" height="30" as="geometry" />
        </mxCell>
        <mxCell id="cVKj1Lbu5gOnooN9UQbO-17" value="PK" style="shape=partialRectangle;connectable=0;fillColor=none;top=0;left=0;bottom=0;right=0;fontStyle=1;overflow=hidden;" parent="cVKj1Lbu5gOnooN9UQbO-16" vertex="1">
          <mxGeometry width="30" height="30" as="geometry" />
        </mxCell>
        <mxCell id="cVKj1Lbu5gOnooN9UQbO-18" value="ID" style="shape=partialRectangle;connectable=0;fillColor=none;top=0;left=0;bottom=0;right=0;align=left;spacingLeft=6;fontStyle=5;overflow=hidden;" parent="cVKj1Lbu5gOnooN9UQbO-16" vertex="1">
          <mxGeometry x="30" width="150" height="30" as="geometry" />
        </mxCell>
        <mxCell id="cVKj1Lbu5gOnooN9UQbO-19" value="" style="shape=partialRectangle;collapsible=0;dropTarget=0;pointerEvents=0;fillColor=none;top=0;left=0;bottom=0;right=0;points=[[0,0.5],[1,0.5]];portConstraint=eastwest;" parent="cVKj1Lbu5gOnooN9UQbO-15" vertex="1">
          <mxGeometry y="60" width="180" height="30" as="geometry" />
        </mxCell>
        <mxCell id="cVKj1Lbu5gOnooN9UQbO-20" value="FK" style="shape=partialRectangle;connectable=0;fillColor=none;top=0;left=0;bottom=0;right=0;editable=1;overflow=hidden;" parent="cVKj1Lbu5gOnooN9UQbO-19" vertex="1">
          <mxGeometry width="30" height="30" as="geometry" />
        </mxCell>
        <mxCell id="cVKj1Lbu5gOnooN9UQbO-21" value="User ID" style="shape=partialRectangle;connectable=0;fillColor=none;top=0;left=0;bottom=0;right=0;align=left;spacingLeft=6;overflow=hidden;" parent="cVKj1Lbu5gOnooN9UQbO-19" vertex="1">
          <mxGeometry x="30" width="150" height="30" as="geometry" />
        </mxCell>
        <mxCell id="cVKj1Lbu5gOnooN9UQbO-22" value="" style="shape=partialRectangle;collapsible=0;dropTarget=0;pointerEvents=0;fillColor=none;top=0;left=0;bottom=0;right=0;points=[[0,0.5],[1,0.5]];portConstraint=eastwest;" parent="cVKj1Lbu5gOnooN9UQbO-15" vertex="1">
          <mxGeometry y="90" width="180" height="30" as="geometry" />
        </mxCell>
        <mxCell id="cVKj1Lbu5gOnooN9UQbO-23" value="" style="shape=partialRectangle;connectable=0;fillColor=none;top=0;left=0;bottom=0;right=0;editable=1;overflow=hidden;" parent="cVKj1Lbu5gOnooN9UQbO-22" vertex="1">
          <mxGeometry width="30" height="30" as="geometry" />
        </mxCell>
        <mxCell id="cVKj1Lbu5gOnooN9UQbO-24" value="Email" style="shape=partialRectangle;connectable=0;fillColor=none;top=0;left=0;bottom=0;right=0;align=left;spacingLeft=6;overflow=hidden;" parent="cVKj1Lbu5gOnooN9UQbO-22" vertex="1">
          <mxGeometry x="30" width="150" height="30" as="geometry" />
        </mxCell>
        <mxCell id="cVKj1Lbu5gOnooN9UQbO-25" value="" style="shape=partialRectangle;collapsible=0;dropTarget=0;pointerEvents=0;fillColor=none;top=0;left=0;bottom=0;right=0;points=[[0,0.5],[1,0.5]];portConstraint=eastwest;" parent="cVKj1Lbu5gOnooN9UQbO-15" vertex="1">
          <mxGeometry y="120" width="180" height="30" as="geometry" />
        </mxCell>
        <mxCell id="cVKj1Lbu5gOnooN9UQbO-26" value="" style="shape=partialRectangle;connectable=0;fillColor=none;top=0;left=0;bottom=0;right=0;editable=1;overflow=hidden;" parent="cVKj1Lbu5gOnooN9UQbO-25" vertex="1">
          <mxGeometry width="30" height="30" as="geometry" />
        </mxCell>
        <mxCell id="cVKj1Lbu5gOnooN9UQbO-27" value="Description" style="shape=partialRectangle;connectable=0;fillColor=none;top=0;left=0;bottom=0;right=0;align=left;spacingLeft=6;overflow=hidden;" parent="cVKj1Lbu5gOnooN9UQbO-25" vertex="1">
          <mxGeometry x="30" width="150" height="30" as="geometry" />
        </mxCell>
        <mxCell id="cVKj1Lbu5gOnooN9UQbO-180" value="" style="shape=partialRectangle;collapsible=0;dropTarget=0;pointerEvents=0;fillColor=none;top=0;left=0;bottom=0;right=0;points=[[0,0.5],[1,0.5]];portConstraint=eastwest;" parent="cVKj1Lbu5gOnooN9UQbO-183" vertex="1">
          <mxGeometry y="150.520559732665" width="180" height="34.73684210526316" as="geometry" />
        </mxCell>
        <mxCell id="cVKj1Lbu5gOnooN9UQbO-181" value="" style="shape=partialRectangle;connectable=0;fillColor=none;top=0;left=0;bottom=0;right=0;editable=1;overflow=hidden;" parent="cVKj1Lbu5gOnooN9UQbO-180" vertex="1">
          <mxGeometry width="30" height="34.73684210526316" as="geometry" />
        </mxCell>
        <mxCell id="cVKj1Lbu5gOnooN9UQbO-182" value="State" style="shape=partialRectangle;connectable=0;fillColor=none;top=0;left=0;bottom=0;right=0;align=left;spacingLeft=6;overflow=hidden;" parent="cVKj1Lbu5gOnooN9UQbO-180" vertex="1">
          <mxGeometry x="30" width="150" height="34.73684210526316" as="geometry" />
        </mxCell>
        <mxCell id="cVKj1Lbu5gOnooN9UQbO-166" value="" style="group" parent="1" vertex="1" connectable="0">
          <mxGeometry x="760" y="300" width="180" height="260" as="geometry" />
        </mxCell>
        <mxCell id="cVKj1Lbu5gOnooN9UQbO-163" value="" style="shape=partialRectangle;collapsible=0;dropTarget=0;pointerEvents=0;fillColor=none;top=0;left=0;bottom=0;right=0;points=[[0,0.5],[1,0.5]];portConstraint=eastwest;" parent="cVKj1Lbu5gOnooN9UQbO-166" vertex="1">
          <mxGeometry y="216.65982456140335" width="180" height="41.05263157894736" as="geometry" />
        </mxCell>
        <mxCell id="cVKj1Lbu5gOnooN9UQbO-164" value="" style="shape=partialRectangle;connectable=0;fillColor=none;top=0;left=0;bottom=0;right=0;editable=1;overflow=hidden;" parent="cVKj1Lbu5gOnooN9UQbO-163" vertex="1">
          <mxGeometry width="30" height="41.05263157894736" as="geometry" />
        </mxCell>
        <mxCell id="cVKj1Lbu5gOnooN9UQbO-165" value="Date" style="shape=partialRectangle;connectable=0;fillColor=none;top=0;left=0;bottom=0;right=0;align=left;spacingLeft=6;overflow=hidden;" parent="cVKj1Lbu5gOnooN9UQbO-163" vertex="1">
          <mxGeometry x="30" width="150" height="41.05263157894736" as="geometry" />
        </mxCell>
        <mxCell id="cVKj1Lbu5gOnooN9UQbO-191" value="" style="group" parent="cVKj1Lbu5gOnooN9UQbO-166" vertex="1" connectable="0">
          <mxGeometry width="180" height="259.99999999999994" as="geometry" />
        </mxCell>
        <mxCell id="cVKj1Lbu5gOnooN9UQbO-46" value="Board" style="shape=table;startSize=30;container=1;collapsible=1;childLayout=tableLayout;fixedRows=1;rowLines=0;fontStyle=1;align=center;resizeLast=1;rounded=0;sketch=0;" parent="cVKj1Lbu5gOnooN9UQbO-191" vertex="1">
          <mxGeometry width="180" height="259.99999999999994" as="geometry" />
        </mxCell>
        <mxCell id="cVKj1Lbu5gOnooN9UQbO-47" value="" style="shape=partialRectangle;collapsible=0;dropTarget=0;pointerEvents=0;fillColor=none;top=0;left=0;bottom=1;right=0;points=[[0,0.5],[1,0.5]];portConstraint=eastwest;" parent="cVKj1Lbu5gOnooN9UQbO-46" vertex="1">
          <mxGeometry y="30" width="180" height="30" as="geometry" />
        </mxCell>
        <mxCell id="cVKj1Lbu5gOnooN9UQbO-48" value="PK" style="shape=partialRectangle;connectable=0;fillColor=none;top=0;left=0;bottom=0;right=0;fontStyle=1;overflow=hidden;" parent="cVKj1Lbu5gOnooN9UQbO-47" vertex="1">
          <mxGeometry width="30" height="30" as="geometry" />
        </mxCell>
        <mxCell id="cVKj1Lbu5gOnooN9UQbO-49" value="ID" style="shape=partialRectangle;connectable=0;fillColor=none;top=0;left=0;bottom=0;right=0;align=left;spacingLeft=6;fontStyle=5;overflow=hidden;" parent="cVKj1Lbu5gOnooN9UQbO-47" vertex="1">
          <mxGeometry x="30" width="150" height="30" as="geometry" />
        </mxCell>
        <mxCell id="cVKj1Lbu5gOnooN9UQbO-50" value="" style="shape=partialRectangle;collapsible=0;dropTarget=0;pointerEvents=0;fillColor=none;top=0;left=0;bottom=0;right=0;points=[[0,0.5],[1,0.5]];portConstraint=eastwest;" parent="cVKj1Lbu5gOnooN9UQbO-46" vertex="1">
          <mxGeometry y="60" width="180" height="30" as="geometry" />
        </mxCell>
        <mxCell id="cVKj1Lbu5gOnooN9UQbO-51" value="FK" style="shape=partialRectangle;connectable=0;fillColor=none;top=0;left=0;bottom=0;right=0;editable=1;overflow=hidden;" parent="cVKj1Lbu5gOnooN9UQbO-50" vertex="1">
          <mxGeometry width="30" height="30" as="geometry" />
        </mxCell>
        <mxCell id="cVKj1Lbu5gOnooN9UQbO-52" value="Team Member ID" style="shape=partialRectangle;connectable=0;fillColor=none;top=0;left=0;bottom=0;right=0;align=left;spacingLeft=6;overflow=hidden;" parent="cVKj1Lbu5gOnooN9UQbO-50" vertex="1">
          <mxGeometry x="30" width="150" height="30" as="geometry" />
        </mxCell>
        <mxCell id="cVKj1Lbu5gOnooN9UQbO-53" value="" style="shape=partialRectangle;collapsible=0;dropTarget=0;pointerEvents=0;fillColor=none;top=0;left=0;bottom=0;right=0;points=[[0,0.5],[1,0.5]];portConstraint=eastwest;" parent="cVKj1Lbu5gOnooN9UQbO-46" vertex="1">
          <mxGeometry y="90" width="180" height="30" as="geometry" />
        </mxCell>
        <mxCell id="cVKj1Lbu5gOnooN9UQbO-54" value="" style="shape=partialRectangle;connectable=0;fillColor=none;top=0;left=0;bottom=0;right=0;editable=1;overflow=hidden;" parent="cVKj1Lbu5gOnooN9UQbO-53" vertex="1">
          <mxGeometry width="30" height="30" as="geometry" />
        </mxCell>
        <mxCell id="cVKj1Lbu5gOnooN9UQbO-55" value="Title" style="shape=partialRectangle;connectable=0;fillColor=none;top=0;left=0;bottom=0;right=0;align=left;spacingLeft=6;overflow=hidden;" parent="cVKj1Lbu5gOnooN9UQbO-53" vertex="1">
          <mxGeometry x="30" width="150" height="30" as="geometry" />
        </mxCell>
        <mxCell id="cVKj1Lbu5gOnooN9UQbO-56" value="" style="shape=partialRectangle;collapsible=0;dropTarget=0;pointerEvents=0;fillColor=none;top=0;left=0;bottom=0;right=0;points=[[0,0.5],[1,0.5]];portConstraint=eastwest;" parent="cVKj1Lbu5gOnooN9UQbO-46" vertex="1">
          <mxGeometry y="120" width="180" height="30" as="geometry" />
        </mxCell>
        <mxCell id="cVKj1Lbu5gOnooN9UQbO-57" value="" style="shape=partialRectangle;connectable=0;fillColor=none;top=0;left=0;bottom=0;right=0;editable=1;overflow=hidden;" parent="cVKj1Lbu5gOnooN9UQbO-56" vertex="1">
          <mxGeometry width="30" height="30" as="geometry" />
        </mxCell>
        <mxCell id="cVKj1Lbu5gOnooN9UQbO-58" value="Content" style="shape=partialRectangle;connectable=0;fillColor=none;top=0;left=0;bottom=0;right=0;align=left;spacingLeft=6;overflow=hidden;" parent="cVKj1Lbu5gOnooN9UQbO-56" vertex="1">
          <mxGeometry x="30" width="150" height="30" as="geometry" />
        </mxCell>
        <mxCell id="cVKj1Lbu5gOnooN9UQbO-188" value="" style="shape=partialRectangle;collapsible=0;dropTarget=0;pointerEvents=0;fillColor=none;top=0;left=0;bottom=0;right=0;points=[[0,0.5],[1,0.5]];portConstraint=eastwest;" parent="cVKj1Lbu5gOnooN9UQbO-191" vertex="1">
          <mxGeometry y="173.6486150802692" width="180" height="43.00751879699248" as="geometry" />
        </mxCell>
        <mxCell id="cVKj1Lbu5gOnooN9UQbO-189" value="" style="shape=partialRectangle;connectable=0;fillColor=none;top=0;left=0;bottom=0;right=0;editable=1;overflow=hidden;" parent="cVKj1Lbu5gOnooN9UQbO-188" vertex="1">
          <mxGeometry width="30" height="43.00751879699248" as="geometry" />
        </mxCell>
        <mxCell id="cVKj1Lbu5gOnooN9UQbO-190" value="State" style="shape=partialRectangle;connectable=0;fillColor=none;top=0;left=0;bottom=0;right=0;align=left;spacingLeft=6;overflow=hidden;" parent="cVKj1Lbu5gOnooN9UQbO-188" vertex="1">
          <mxGeometry x="30" width="150" height="43.00751879699248" as="geometry" />
        </mxCell>
        <mxCell id="zGnZWNVNbxOUGuP-NnCm-1" value="" style="shape=partialRectangle;collapsible=0;dropTarget=0;pointerEvents=0;fillColor=none;top=0;left=0;bottom=0;right=0;points=[[0,0.5],[1,0.5]];portConstraint=eastwest;" parent="cVKj1Lbu5gOnooN9UQbO-191" vertex="1">
          <mxGeometry y="150" width="180" height="30" as="geometry" />
        </mxCell>
        <mxCell id="zGnZWNVNbxOUGuP-NnCm-2" value="" style="shape=partialRectangle;connectable=0;fillColor=none;top=0;left=0;bottom=0;right=0;editable=1;overflow=hidden;" parent="zGnZWNVNbxOUGuP-NnCm-1" vertex="1">
          <mxGeometry width="30" height="30" as="geometry" />
        </mxCell>
        <mxCell id="zGnZWNVNbxOUGuP-NnCm-3" value="Team ID" style="shape=partialRectangle;connectable=0;fillColor=none;top=0;left=0;bottom=0;right=0;align=left;spacingLeft=6;overflow=hidden;" parent="zGnZWNVNbxOUGuP-NnCm-1" vertex="1">
          <mxGeometry x="30" width="150" height="30" as="geometry" />
        </mxCell>
        <mxCell id="cVKj1Lbu5gOnooN9UQbO-179" value="" style="group" parent="1" vertex="1" connectable="0">
          <mxGeometry x="380" y="650" width="180" height="300" as="geometry" />
        </mxCell>
        <mxCell id="cVKj1Lbu5gOnooN9UQbO-176" value="" style="shape=partialRectangle;collapsible=0;dropTarget=0;pointerEvents=0;fillColor=none;top=0;left=0;bottom=0;right=0;points=[[0,0.5],[1,0.5]];portConstraint=eastwest;" parent="cVKj1Lbu5gOnooN9UQbO-179" vertex="1">
          <mxGeometry y="225.00000000000006" width="180" height="45.00000000000002" as="geometry" />
        </mxCell>
        <mxCell id="cVKj1Lbu5gOnooN9UQbO-177" value="" style="shape=partialRectangle;connectable=0;fillColor=none;top=0;left=0;bottom=0;right=0;editable=1;overflow=hidden;" parent="cVKj1Lbu5gOnooN9UQbO-176" vertex="1">
          <mxGeometry width="30" height="45.00000000000002" as="geometry" />
        </mxCell>
        <mxCell id="cVKj1Lbu5gOnooN9UQbO-178" value="Date" style="shape=partialRectangle;connectable=0;fillColor=none;top=0;left=0;bottom=0;right=0;align=left;spacingLeft=6;overflow=hidden;" parent="cVKj1Lbu5gOnooN9UQbO-176" vertex="1">
          <mxGeometry x="30" width="150" height="45.00000000000002" as="geometry" />
        </mxCell>
        <mxCell id="cVKj1Lbu5gOnooN9UQbO-195" value="" style="group" parent="cVKj1Lbu5gOnooN9UQbO-179" vertex="1" connectable="0">
          <mxGeometry width="180" height="300" as="geometry" />
        </mxCell>
        <mxCell id="cVKj1Lbu5gOnooN9UQbO-192" value="" style="shape=partialRectangle;collapsible=0;dropTarget=0;pointerEvents=0;fillColor=none;top=0;left=0;bottom=0;right=0;points=[[0,0.5],[1,0.5]];portConstraint=eastwest;" parent="cVKj1Lbu5gOnooN9UQbO-195" vertex="1">
          <mxGeometry y="190.7163440527728" width="180" height="47.142857142857146" as="geometry" />
        </mxCell>
        <mxCell id="cVKj1Lbu5gOnooN9UQbO-193" value="" style="shape=partialRectangle;connectable=0;fillColor=none;top=0;left=0;bottom=0;right=0;editable=1;overflow=hidden;" parent="cVKj1Lbu5gOnooN9UQbO-192" vertex="1">
          <mxGeometry width="30" height="47.142857142857146" as="geometry" />
        </mxCell>
        <mxCell id="cVKj1Lbu5gOnooN9UQbO-194" value="State" style="shape=partialRectangle;connectable=0;fillColor=none;top=0;left=0;bottom=0;right=0;align=left;spacingLeft=6;overflow=hidden;" parent="cVKj1Lbu5gOnooN9UQbO-192" vertex="1">
          <mxGeometry x="30" width="150" height="47.142857142857146" as="geometry" />
        </mxCell>
        <mxCell id="cVKj1Lbu5gOnooN9UQbO-230" value="" style="group" parent="cVKj1Lbu5gOnooN9UQbO-195" vertex="1" connectable="0">
          <mxGeometry width="180" height="300" as="geometry" />
        </mxCell>
        <mxCell id="cVKj1Lbu5gOnooN9UQbO-60" value="Card" style="shape=table;startSize=30;container=1;collapsible=1;childLayout=tableLayout;fixedRows=1;rowLines=0;fontStyle=1;align=center;resizeLast=1;rounded=0;sketch=0;" parent="cVKj1Lbu5gOnooN9UQbO-230" vertex="1">
          <mxGeometry width="180" height="300" as="geometry" />
        </mxCell>
        <mxCell id="cVKj1Lbu5gOnooN9UQbO-61" value="" style="shape=partialRectangle;collapsible=0;dropTarget=0;pointerEvents=0;fillColor=none;top=0;left=0;bottom=1;right=0;points=[[0,0.5],[1,0.5]];portConstraint=eastwest;" parent="cVKj1Lbu5gOnooN9UQbO-60" vertex="1">
          <mxGeometry y="30" width="180" height="30" as="geometry" />
        </mxCell>
        <mxCell id="cVKj1Lbu5gOnooN9UQbO-62" value="PK" style="shape=partialRectangle;connectable=0;fillColor=none;top=0;left=0;bottom=0;right=0;fontStyle=1;overflow=hidden;" parent="cVKj1Lbu5gOnooN9UQbO-61" vertex="1">
          <mxGeometry width="30" height="30" as="geometry" />
        </mxCell>
        <mxCell id="cVKj1Lbu5gOnooN9UQbO-63" value="ID" style="shape=partialRectangle;connectable=0;fillColor=none;top=0;left=0;bottom=0;right=0;align=left;spacingLeft=6;fontStyle=5;overflow=hidden;" parent="cVKj1Lbu5gOnooN9UQbO-61" vertex="1">
          <mxGeometry x="30" width="150" height="30" as="geometry" />
        </mxCell>
        <mxCell id="cVKj1Lbu5gOnooN9UQbO-64" value="" style="shape=partialRectangle;collapsible=0;dropTarget=0;pointerEvents=0;fillColor=none;top=0;left=0;bottom=0;right=0;points=[[0,0.5],[1,0.5]];portConstraint=eastwest;" parent="cVKj1Lbu5gOnooN9UQbO-60" vertex="1">
          <mxGeometry y="60" width="180" height="30" as="geometry" />
        </mxCell>
        <mxCell id="cVKj1Lbu5gOnooN9UQbO-65" value="FK" style="shape=partialRectangle;connectable=0;fillColor=none;top=0;left=0;bottom=0;right=0;editable=1;overflow=hidden;" parent="cVKj1Lbu5gOnooN9UQbO-64" vertex="1">
          <mxGeometry width="30" height="30" as="geometry" />
        </mxCell>
        <mxCell id="cVKj1Lbu5gOnooN9UQbO-66" value="Team Member ID" style="shape=partialRectangle;connectable=0;fillColor=none;top=0;left=0;bottom=0;right=0;align=left;spacingLeft=6;overflow=hidden;" parent="cVKj1Lbu5gOnooN9UQbO-64" vertex="1">
          <mxGeometry x="30" width="150" height="30" as="geometry" />
        </mxCell>
        <mxCell id="cVKj1Lbu5gOnooN9UQbO-67" value="" style="shape=partialRectangle;collapsible=0;dropTarget=0;pointerEvents=0;fillColor=none;top=0;left=0;bottom=0;right=0;points=[[0,0.5],[1,0.5]];portConstraint=eastwest;" parent="cVKj1Lbu5gOnooN9UQbO-60" vertex="1">
          <mxGeometry y="90" width="180" height="30" as="geometry" />
        </mxCell>
        <mxCell id="cVKj1Lbu5gOnooN9UQbO-68" value="" style="shape=partialRectangle;connectable=0;fillColor=none;top=0;left=0;bottom=0;right=0;editable=1;overflow=hidden;" parent="cVKj1Lbu5gOnooN9UQbO-67" vertex="1">
          <mxGeometry width="30" height="30" as="geometry" />
        </mxCell>
        <mxCell id="cVKj1Lbu5gOnooN9UQbO-69" value="Title" style="shape=partialRectangle;connectable=0;fillColor=none;top=0;left=0;bottom=0;right=0;align=left;spacingLeft=6;overflow=hidden;" parent="cVKj1Lbu5gOnooN9UQbO-67" vertex="1">
          <mxGeometry x="30" width="150" height="30" as="geometry" />
        </mxCell>
        <mxCell id="cVKj1Lbu5gOnooN9UQbO-70" value="" style="shape=partialRectangle;collapsible=0;dropTarget=0;pointerEvents=0;fillColor=none;top=0;left=0;bottom=0;right=0;points=[[0,0.5],[1,0.5]];portConstraint=eastwest;" parent="cVKj1Lbu5gOnooN9UQbO-60" vertex="1">
          <mxGeometry y="120" width="180" height="30" as="geometry" />
        </mxCell>
        <mxCell id="cVKj1Lbu5gOnooN9UQbO-71" value="" style="shape=partialRectangle;connectable=0;fillColor=none;top=0;left=0;bottom=0;right=0;editable=1;overflow=hidden;" parent="cVKj1Lbu5gOnooN9UQbO-70" vertex="1">
          <mxGeometry width="30" height="30" as="geometry" />
        </mxCell>
        <mxCell id="cVKj1Lbu5gOnooN9UQbO-72" value="Content" style="shape=partialRectangle;connectable=0;fillColor=none;top=0;left=0;bottom=0;right=0;align=left;spacingLeft=6;overflow=hidden;" parent="cVKj1Lbu5gOnooN9UQbO-70" vertex="1">
          <mxGeometry x="30" width="150" height="30" as="geometry" />
        </mxCell>
        <mxCell id="cVKj1Lbu5gOnooN9UQbO-227" value="" style="shape=partialRectangle;collapsible=0;dropTarget=0;pointerEvents=0;fillColor=none;top=0;left=0;bottom=0;right=0;points=[[0,0.5],[1,0.5]];portConstraint=eastwest;" parent="cVKj1Lbu5gOnooN9UQbO-230" vertex="1">
          <mxGeometry y="145.38648466612776" width="180" height="45.329670329670336" as="geometry" />
        </mxCell>
        <mxCell id="cVKj1Lbu5gOnooN9UQbO-228" value="" style="shape=partialRectangle;connectable=0;fillColor=none;top=0;left=0;bottom=0;right=0;editable=1;overflow=hidden;" parent="cVKj1Lbu5gOnooN9UQbO-227" vertex="1">
          <mxGeometry width="30" height="45.329670329670336" as="geometry" />
        </mxCell>
        <mxCell id="cVKj1Lbu5gOnooN9UQbO-229" value="Position" style="shape=partialRectangle;connectable=0;fillColor=none;top=0;left=0;bottom=0;right=0;align=left;spacingLeft=6;overflow=hidden;" parent="cVKj1Lbu5gOnooN9UQbO-227" vertex="1">
          <mxGeometry x="30" width="150" height="45.329670329670336" as="geometry" />
        </mxCell>
        <mxCell id="CJrxKydq7ZJFIGbYicGT-1" value="" style="shape=partialRectangle;collapsible=0;dropTarget=0;pointerEvents=0;fillColor=none;top=0;left=0;bottom=0;right=0;points=[[0,0.5],[1,0.5]];portConstraint=eastwest;" parent="cVKj1Lbu5gOnooN9UQbO-230" vertex="1">
          <mxGeometry y="255" width="180" height="45.00000000000002" as="geometry" />
        </mxCell>
        <mxCell id="CJrxKydq7ZJFIGbYicGT-2" value="" style="shape=partialRectangle;connectable=0;fillColor=none;top=0;left=0;bottom=0;right=0;editable=1;overflow=hidden;" parent="CJrxKydq7ZJFIGbYicGT-1" vertex="1">
          <mxGeometry width="30" height="45.00000000000002" as="geometry" />
        </mxCell>
        <mxCell id="CJrxKydq7ZJFIGbYicGT-3" value="Board iD" style="shape=partialRectangle;connectable=0;fillColor=none;top=0;left=0;bottom=0;right=0;align=left;spacingLeft=6;overflow=hidden;" parent="CJrxKydq7ZJFIGbYicGT-1" vertex="1">
          <mxGeometry x="30" width="150" height="45.00000000000002" as="geometry" />
        </mxCell>
        <mxCell id="cVKj1Lbu5gOnooN9UQbO-203" value="" style="group" parent="1" vertex="1" connectable="0">
          <mxGeometry x="70" y="340" width="180" height="350" as="geometry" />
        </mxCell>
        <mxCell id="cVKj1Lbu5gOnooN9UQbO-202" value="" style="group" parent="cVKj1Lbu5gOnooN9UQbO-203" vertex="1" connectable="0">
          <mxGeometry width="180" height="350" as="geometry" />
        </mxCell>
        <mxCell id="cVKj1Lbu5gOnooN9UQbO-214" value="" style="group" parent="cVKj1Lbu5gOnooN9UQbO-202" vertex="1" connectable="0">
          <mxGeometry width="180" height="350" as="geometry" />
        </mxCell>
        <mxCell id="cVKj1Lbu5gOnooN9UQbO-199" value="" style="group" parent="cVKj1Lbu5gOnooN9UQbO-214" vertex="1" connectable="0">
          <mxGeometry y="147.92965517241382" width="180" height="34.13793103448276" as="geometry" />
        </mxCell>
        <mxCell id="cVKj1Lbu5gOnooN9UQbO-196" value="Extension" style="shape=partialRectangle;connectable=0;fillColor=none;top=0;left=0;bottom=0;right=0;align=left;spacingLeft=6;overflow=hidden;" parent="cVKj1Lbu5gOnooN9UQbO-199" vertex="1">
          <mxGeometry x="30" width="150" height="34.13793103448276" as="geometry" />
        </mxCell>
        <mxCell id="cVKj1Lbu5gOnooN9UQbO-198" value="" style="shape=partialRectangle;connectable=0;fillColor=none;top=0;left=0;bottom=0;right=0;editable=1;overflow=hidden;" parent="cVKj1Lbu5gOnooN9UQbO-199" vertex="1">
          <mxGeometry width="30" height="34.13793103448276" as="geometry" />
        </mxCell>
        <mxCell id="cVKj1Lbu5gOnooN9UQbO-201" value="" style="group" parent="cVKj1Lbu5gOnooN9UQbO-214" vertex="1" connectable="0">
          <mxGeometry y="182.06758620689658" width="180" height="34.13793103448276" as="geometry" />
        </mxCell>
        <mxCell id="cVKj1Lbu5gOnooN9UQbO-197" value="File Name" style="shape=partialRectangle;connectable=0;fillColor=none;top=0;left=0;bottom=0;right=0;align=left;spacingLeft=6;overflow=hidden;" parent="cVKj1Lbu5gOnooN9UQbO-201" vertex="1">
          <mxGeometry x="30" width="150" height="34.13793103448276" as="geometry" />
        </mxCell>
        <mxCell id="cVKj1Lbu5gOnooN9UQbO-200" value="" style="shape=partialRectangle;connectable=0;fillColor=none;top=0;left=0;bottom=0;right=0;editable=1;overflow=hidden;" parent="cVKj1Lbu5gOnooN9UQbO-201" vertex="1">
          <mxGeometry width="30" height="34.13793103448276" as="geometry" />
        </mxCell>
        <mxCell id="cVKj1Lbu5gOnooN9UQbO-205" value="" style="group" parent="cVKj1Lbu5gOnooN9UQbO-214" vertex="1" connectable="0">
          <mxGeometry y="209.99551724137933" width="180" height="34.13793103448276" as="geometry" />
        </mxCell>
        <mxCell id="cVKj1Lbu5gOnooN9UQbO-206" value="Size" style="shape=partialRectangle;connectable=0;fillColor=none;top=0;left=0;bottom=0;right=0;align=left;spacingLeft=6;overflow=hidden;" parent="cVKj1Lbu5gOnooN9UQbO-205" vertex="1">
          <mxGeometry x="30" width="150" height="34.13793103448276" as="geometry" />
        </mxCell>
        <mxCell id="cVKj1Lbu5gOnooN9UQbO-207" value="" style="shape=partialRectangle;connectable=0;fillColor=none;top=0;left=0;bottom=0;right=0;editable=1;overflow=hidden;" parent="cVKj1Lbu5gOnooN9UQbO-205" vertex="1">
          <mxGeometry width="30" height="34.13793103448276" as="geometry" />
        </mxCell>
        <mxCell id="cVKj1Lbu5gOnooN9UQbO-211" value="" style="group" parent="cVKj1Lbu5gOnooN9UQbO-214" vertex="1" connectable="0">
          <mxGeometry y="244.1334482758621" width="180" height="34.13793103448276" as="geometry" />
        </mxCell>
        <mxCell id="cVKj1Lbu5gOnooN9UQbO-212" value="Desciption" style="shape=partialRectangle;connectable=0;fillColor=none;top=0;left=0;bottom=0;right=0;align=left;spacingLeft=6;overflow=hidden;" parent="cVKj1Lbu5gOnooN9UQbO-211" vertex="1">
          <mxGeometry x="30" width="150" height="34.13793103448276" as="geometry" />
        </mxCell>
        <mxCell id="cVKj1Lbu5gOnooN9UQbO-213" value="" style="shape=partialRectangle;connectable=0;fillColor=none;top=0;left=0;bottom=0;right=0;editable=1;overflow=hidden;" parent="cVKj1Lbu5gOnooN9UQbO-211" vertex="1">
          <mxGeometry width="30" height="34.13793103448276" as="geometry" />
        </mxCell>
        <mxCell id="cVKj1Lbu5gOnooN9UQbO-215" value="" style="group" parent="cVKj1Lbu5gOnooN9UQbO-214" vertex="1" connectable="0">
          <mxGeometry y="278.27344827586205" width="180" height="34.13793103448276" as="geometry" />
        </mxCell>
        <mxCell id="cVKj1Lbu5gOnooN9UQbO-216" value="Date" style="shape=partialRectangle;connectable=0;fillColor=none;top=0;left=0;bottom=0;right=0;align=left;spacingLeft=6;overflow=hidden;" parent="cVKj1Lbu5gOnooN9UQbO-215" vertex="1">
          <mxGeometry x="30" width="150" height="34.13793103448276" as="geometry" />
        </mxCell>
        <mxCell id="cVKj1Lbu5gOnooN9UQbO-217" value="" style="shape=partialRectangle;connectable=0;fillColor=none;top=0;left=0;bottom=0;right=0;editable=1;overflow=hidden;" parent="cVKj1Lbu5gOnooN9UQbO-215" vertex="1">
          <mxGeometry width="30" height="34.13793103448276" as="geometry" />
        </mxCell>
        <mxCell id="cVKj1Lbu5gOnooN9UQbO-221" value="" style="group" parent="cVKj1Lbu5gOnooN9UQbO-214" vertex="1" connectable="0">
          <mxGeometry width="180" height="350" as="geometry" />
        </mxCell>
        <mxCell id="cVKj1Lbu5gOnooN9UQbO-105" value="Attachment" style="shape=table;startSize=30;container=1;collapsible=1;childLayout=tableLayout;fixedRows=1;rowLines=0;fontStyle=1;align=center;resizeLast=1;rounded=0;sketch=0;" parent="cVKj1Lbu5gOnooN9UQbO-221" vertex="1">
          <mxGeometry width="180" height="350" as="geometry" />
        </mxCell>
        <mxCell id="cVKj1Lbu5gOnooN9UQbO-106" value="" style="shape=partialRectangle;collapsible=0;dropTarget=0;pointerEvents=0;fillColor=none;top=0;left=0;bottom=1;right=0;points=[[0,0.5],[1,0.5]];portConstraint=eastwest;" parent="cVKj1Lbu5gOnooN9UQbO-105" vertex="1">
          <mxGeometry y="30" width="180" height="30" as="geometry" />
        </mxCell>
        <mxCell id="cVKj1Lbu5gOnooN9UQbO-107" value="PK" style="shape=partialRectangle;connectable=0;fillColor=none;top=0;left=0;bottom=0;right=0;fontStyle=1;overflow=hidden;" parent="cVKj1Lbu5gOnooN9UQbO-106" vertex="1">
          <mxGeometry width="30" height="30" as="geometry" />
        </mxCell>
        <mxCell id="cVKj1Lbu5gOnooN9UQbO-108" value="ID" style="shape=partialRectangle;connectable=0;fillColor=none;top=0;left=0;bottom=0;right=0;align=left;spacingLeft=6;fontStyle=5;overflow=hidden;" parent="cVKj1Lbu5gOnooN9UQbO-106" vertex="1">
          <mxGeometry x="30" width="150" height="30" as="geometry" />
        </mxCell>
        <mxCell id="cVKj1Lbu5gOnooN9UQbO-109" value="" style="shape=partialRectangle;collapsible=0;dropTarget=0;pointerEvents=0;fillColor=none;top=0;left=0;bottom=0;right=0;points=[[0,0.5],[1,0.5]];portConstraint=eastwest;" parent="cVKj1Lbu5gOnooN9UQbO-105" vertex="1">
          <mxGeometry y="60" width="180" height="30" as="geometry" />
        </mxCell>
        <mxCell id="cVKj1Lbu5gOnooN9UQbO-110" value="FK" style="shape=partialRectangle;connectable=0;fillColor=none;top=0;left=0;bottom=0;right=0;editable=1;overflow=hidden;" parent="cVKj1Lbu5gOnooN9UQbO-109" vertex="1">
          <mxGeometry width="30" height="30" as="geometry" />
        </mxCell>
        <mxCell id="cVKj1Lbu5gOnooN9UQbO-111" value="Card ID" style="shape=partialRectangle;connectable=0;fillColor=none;top=0;left=0;bottom=0;right=0;align=left;spacingLeft=6;overflow=hidden;" parent="cVKj1Lbu5gOnooN9UQbO-109" vertex="1">
          <mxGeometry x="30" width="150" height="30" as="geometry" />
        </mxCell>
        <mxCell id="cVKj1Lbu5gOnooN9UQbO-112" value="" style="shape=partialRectangle;collapsible=0;dropTarget=0;pointerEvents=0;fillColor=none;top=0;left=0;bottom=0;right=0;points=[[0,0.5],[1,0.5]];portConstraint=eastwest;" parent="cVKj1Lbu5gOnooN9UQbO-105" vertex="1">
          <mxGeometry y="90" width="180" height="30" as="geometry" />
        </mxCell>
        <mxCell id="cVKj1Lbu5gOnooN9UQbO-113" value="" style="shape=partialRectangle;connectable=0;fillColor=none;top=0;left=0;bottom=0;right=0;editable=1;overflow=hidden;" parent="cVKj1Lbu5gOnooN9UQbO-112" vertex="1">
          <mxGeometry width="30" height="30" as="geometry" />
        </mxCell>
        <mxCell id="cVKj1Lbu5gOnooN9UQbO-114" value="Path" style="shape=partialRectangle;connectable=0;fillColor=none;top=0;left=0;bottom=0;right=0;align=left;spacingLeft=6;overflow=hidden;" parent="cVKj1Lbu5gOnooN9UQbO-112" vertex="1">
          <mxGeometry x="30" width="150" height="30" as="geometry" />
        </mxCell>
        <mxCell id="cVKj1Lbu5gOnooN9UQbO-115" value="" style="shape=partialRectangle;collapsible=0;dropTarget=0;pointerEvents=0;fillColor=none;top=0;left=0;bottom=0;right=0;points=[[0,0.5],[1,0.5]];portConstraint=eastwest;" parent="cVKj1Lbu5gOnooN9UQbO-105" vertex="1">
          <mxGeometry y="120" width="180" height="30" as="geometry" />
        </mxCell>
        <mxCell id="cVKj1Lbu5gOnooN9UQbO-116" value="" style="shape=partialRectangle;connectable=0;fillColor=none;top=0;left=0;bottom=0;right=0;editable=1;overflow=hidden;" parent="cVKj1Lbu5gOnooN9UQbO-115" vertex="1">
          <mxGeometry width="30" height="30" as="geometry" />
        </mxCell>
        <mxCell id="cVKj1Lbu5gOnooN9UQbO-117" value="System File Name" style="shape=partialRectangle;connectable=0;fillColor=none;top=0;left=0;bottom=0;right=0;align=left;spacingLeft=6;overflow=hidden;" parent="cVKj1Lbu5gOnooN9UQbO-115" vertex="1">
          <mxGeometry x="30" width="150" height="30" as="geometry" />
        </mxCell>
        <mxCell id="cVKj1Lbu5gOnooN9UQbO-218" value="" style="group" parent="cVKj1Lbu5gOnooN9UQbO-221" vertex="1" connectable="0">
          <mxGeometry y="312.41344827586204" width="180" height="34.13793103448276" as="geometry" />
        </mxCell>
        <mxCell id="cVKj1Lbu5gOnooN9UQbO-219" value="State" style="shape=partialRectangle;connectable=0;fillColor=none;top=0;left=0;bottom=0;right=0;align=left;spacingLeft=6;overflow=hidden;" parent="cVKj1Lbu5gOnooN9UQbO-218" vertex="1">
          <mxGeometry x="30" width="150" height="34.13793103448276" as="geometry" />
        </mxCell>
        <mxCell id="cVKj1Lbu5gOnooN9UQbO-220" value="" style="shape=partialRectangle;connectable=0;fillColor=none;top=0;left=0;bottom=0;right=0;editable=1;overflow=hidden;" parent="cVKj1Lbu5gOnooN9UQbO-218" vertex="1">
          <mxGeometry width="30" height="34.13793103448276" as="geometry" />
        </mxCell>
        <mxCell id="cVKj1Lbu5gOnooN9UQbO-222" value="" style="edgeStyle=entityRelationEdgeStyle;fontSize=12;html=1;endArrow=ERzeroToMany;startArrow=ERmandOne;entryX=1;entryY=0.5;entryDx=0;entryDy=0;exitX=0;exitY=0.5;exitDx=0;exitDy=0;" parent="1" source="cVKj1Lbu5gOnooN9UQbO-32" target="cVKj1Lbu5gOnooN9UQbO-98" edge="1">
          <mxGeometry width="100" height="100" relative="1" as="geometry">
            <mxPoint x="360" y="550" as="sourcePoint" />
            <mxPoint x="109.99999999999977" y="910" as="targetPoint" />
          </mxGeometry>
        </mxCell>
        <mxCell id="cVKj1Lbu5gOnooN9UQbO-226" value="" style="group" parent="1" vertex="1" connectable="0">
          <mxGeometry x="50" y="840" width="180" height="210" as="geometry" />
        </mxCell>
        <mxCell id="cVKj1Lbu5gOnooN9UQbO-91" value="Reply" style="shape=table;startSize=30;container=1;collapsible=1;childLayout=tableLayout;fixedRows=1;rowLines=0;fontStyle=1;align=center;resizeLast=1;rounded=0;sketch=0;" parent="cVKj1Lbu5gOnooN9UQbO-226" vertex="1">
          <mxGeometry width="180" height="210" as="geometry" />
        </mxCell>
        <mxCell id="cVKj1Lbu5gOnooN9UQbO-92" value="" style="shape=partialRectangle;collapsible=0;dropTarget=0;pointerEvents=0;fillColor=none;top=0;left=0;bottom=1;right=0;points=[[0,0.5],[1,0.5]];portConstraint=eastwest;" parent="cVKj1Lbu5gOnooN9UQbO-91" vertex="1">
          <mxGeometry y="30" width="180" height="30" as="geometry" />
        </mxCell>
        <mxCell id="cVKj1Lbu5gOnooN9UQbO-93" value="PK" style="shape=partialRectangle;connectable=0;fillColor=none;top=0;left=0;bottom=0;right=0;fontStyle=1;overflow=hidden;" parent="cVKj1Lbu5gOnooN9UQbO-92" vertex="1">
          <mxGeometry width="30" height="30" as="geometry" />
        </mxCell>
        <mxCell id="cVKj1Lbu5gOnooN9UQbO-94" value="ID" style="shape=partialRectangle;connectable=0;fillColor=none;top=0;left=0;bottom=0;right=0;align=left;spacingLeft=6;fontStyle=5;overflow=hidden;" parent="cVKj1Lbu5gOnooN9UQbO-92" vertex="1">
          <mxGeometry x="30" width="150" height="30" as="geometry" />
        </mxCell>
        <mxCell id="cVKj1Lbu5gOnooN9UQbO-95" value="" style="shape=partialRectangle;collapsible=0;dropTarget=0;pointerEvents=0;fillColor=none;top=0;left=0;bottom=0;right=0;points=[[0,0.5],[1,0.5]];portConstraint=eastwest;" parent="cVKj1Lbu5gOnooN9UQbO-91" vertex="1">
          <mxGeometry y="60" width="180" height="30" as="geometry" />
        </mxCell>
        <mxCell id="cVKj1Lbu5gOnooN9UQbO-96" value="FK" style="shape=partialRectangle;connectable=0;fillColor=none;top=0;left=0;bottom=0;right=0;editable=1;overflow=hidden;" parent="cVKj1Lbu5gOnooN9UQbO-95" vertex="1">
          <mxGeometry width="30" height="30" as="geometry" />
        </mxCell>
        <mxCell id="cVKj1Lbu5gOnooN9UQbO-97" value="Card ID" style="shape=partialRectangle;connectable=0;fillColor=none;top=0;left=0;bottom=0;right=0;align=left;spacingLeft=6;overflow=hidden;" parent="cVKj1Lbu5gOnooN9UQbO-95" vertex="1">
          <mxGeometry x="30" width="150" height="30" as="geometry" />
        </mxCell>
        <mxCell id="cVKj1Lbu5gOnooN9UQbO-98" value="" style="shape=partialRectangle;collapsible=0;dropTarget=0;pointerEvents=0;fillColor=none;top=0;left=0;bottom=0;right=0;points=[[0,0.5],[1,0.5]];portConstraint=eastwest;" parent="cVKj1Lbu5gOnooN9UQbO-91" vertex="1">
          <mxGeometry y="90" width="180" height="30" as="geometry" />
        </mxCell>
        <mxCell id="cVKj1Lbu5gOnooN9UQbO-99" value="FK" style="shape=partialRectangle;connectable=0;fillColor=none;top=0;left=0;bottom=0;right=0;editable=1;overflow=hidden;" parent="cVKj1Lbu5gOnooN9UQbO-98" vertex="1">
          <mxGeometry width="30" height="30" as="geometry" />
        </mxCell>
        <mxCell id="cVKj1Lbu5gOnooN9UQbO-100" value="Team Member ID" style="shape=partialRectangle;connectable=0;fillColor=none;top=0;left=0;bottom=0;right=0;align=left;spacingLeft=6;overflow=hidden;" parent="cVKj1Lbu5gOnooN9UQbO-98" vertex="1">
          <mxGeometry x="30" width="150" height="30" as="geometry" />
        </mxCell>
        <mxCell id="cVKj1Lbu5gOnooN9UQbO-101" value="" style="shape=partialRectangle;collapsible=0;dropTarget=0;pointerEvents=0;fillColor=none;top=0;left=0;bottom=0;right=0;points=[[0,0.5],[1,0.5]];portConstraint=eastwest;" parent="cVKj1Lbu5gOnooN9UQbO-91" vertex="1">
          <mxGeometry y="120" width="180" height="30" as="geometry" />
        </mxCell>
        <mxCell id="cVKj1Lbu5gOnooN9UQbO-102" value="" style="shape=partialRectangle;connectable=0;fillColor=none;top=0;left=0;bottom=0;right=0;editable=1;overflow=hidden;" parent="cVKj1Lbu5gOnooN9UQbO-101" vertex="1">
          <mxGeometry width="30" height="30" as="geometry" />
        </mxCell>
        <mxCell id="cVKj1Lbu5gOnooN9UQbO-103" value="Content" style="shape=partialRectangle;connectable=0;fillColor=none;top=0;left=0;bottom=0;right=0;align=left;spacingLeft=6;overflow=hidden;" parent="cVKj1Lbu5gOnooN9UQbO-101" vertex="1">
          <mxGeometry x="30" width="150" height="30" as="geometry" />
        </mxCell>
        <mxCell id="cVKj1Lbu5gOnooN9UQbO-223" value="" style="shape=partialRectangle;collapsible=0;dropTarget=0;pointerEvents=0;fillColor=none;top=0;left=0;bottom=0;right=0;points=[[0,0.5],[1,0.5]];portConstraint=eastwest;" parent="cVKj1Lbu5gOnooN9UQbO-226" vertex="1">
          <mxGeometry y="150" width="180" height="30" as="geometry" />
        </mxCell>
        <mxCell id="cVKj1Lbu5gOnooN9UQbO-224" value="" style="shape=partialRectangle;connectable=0;fillColor=none;top=0;left=0;bottom=0;right=0;editable=1;overflow=hidden;" parent="cVKj1Lbu5gOnooN9UQbO-223" vertex="1">
          <mxGeometry width="30" height="30" as="geometry" />
        </mxCell>
        <mxCell id="cVKj1Lbu5gOnooN9UQbO-225" value="Date" style="shape=partialRectangle;connectable=0;fillColor=none;top=0;left=0;bottom=0;right=0;align=left;spacingLeft=6;overflow=hidden;" parent="cVKj1Lbu5gOnooN9UQbO-223" vertex="1">
          <mxGeometry x="30" width="150" height="30" as="geometry" />
        </mxCell>
        <mxCell id="zGnZWNVNbxOUGuP-NnCm-4" value="" style="edgeStyle=entityRelationEdgeStyle;fontSize=12;html=1;endArrow=ERzeroToMany;startArrow=ERmandOne;exitX=1;exitY=0.5;exitDx=0;exitDy=0;entryX=0;entryY=0.5;entryDx=0;entryDy=0;" parent="1" source="cVKj1Lbu5gOnooN9UQbO-16" target="zGnZWNVNbxOUGuP-NnCm-1" edge="1">
          <mxGeometry width="100" height="100" relative="1" as="geometry">
            <mxPoint x="730" y="120" as="sourcePoint" />
            <mxPoint x="730" y="390" as="targetPoint" />
          </mxGeometry>
        </mxCell>
        <mxCell id="iSMeBKeowd5MEmH3NNFe-17" value="" style="group" parent="1" vertex="1" connectable="0">
          <mxGeometry x="380" y="-160" width="180" height="220.00000000000003" as="geometry" />
        </mxCell>
        <mxCell id="iSMeBKeowd5MEmH3NNFe-14" value="" style="shape=partialRectangle;collapsible=0;dropTarget=0;pointerEvents=0;fillColor=none;top=0;left=0;bottom=0;right=0;points=[[0,0.5],[1,0.5]];portConstraint=eastwest;" parent="iSMeBKeowd5MEmH3NNFe-17" vertex="1">
          <mxGeometry y="183.33333333333334" width="180" height="36.66666666666667" as="geometry" />
        </mxCell>
        <mxCell id="iSMeBKeowd5MEmH3NNFe-15" value="" style="shape=partialRectangle;connectable=0;fillColor=none;top=0;left=0;bottom=0;right=0;editable=1;overflow=hidden;" parent="iSMeBKeowd5MEmH3NNFe-14" vertex="1">
          <mxGeometry width="30" height="36.66666666666667" as="geometry" />
        </mxCell>
        <mxCell id="iSMeBKeowd5MEmH3NNFe-16" value="Date" style="shape=partialRectangle;connectable=0;fillColor=none;top=0;left=0;bottom=0;right=0;align=left;spacingLeft=6;overflow=hidden;" parent="iSMeBKeowd5MEmH3NNFe-14" vertex="1">
          <mxGeometry x="30" width="150" height="36.66666666666667" as="geometry" />
        </mxCell>
        <mxCell id="s58gVU0sh_EnuM7iIKpC-4" value="" style="group" vertex="1" connectable="0" parent="iSMeBKeowd5MEmH3NNFe-17">
          <mxGeometry width="180" height="220.00000000000003" as="geometry" />
        </mxCell>
        <mxCell id="iSMeBKeowd5MEmH3NNFe-1" value="Team Chat" style="shape=table;startSize=30;container=1;collapsible=1;childLayout=tableLayout;fixedRows=1;rowLines=0;fontStyle=1;align=center;resizeLast=1;" parent="s58gVU0sh_EnuM7iIKpC-4" vertex="1">
          <mxGeometry width="180" height="220.00000000000003" as="geometry" />
        </mxCell>
        <mxCell id="iSMeBKeowd5MEmH3NNFe-2" value="" style="shape=partialRectangle;collapsible=0;dropTarget=0;pointerEvents=0;fillColor=none;top=0;left=0;bottom=1;right=0;points=[[0,0.5],[1,0.5]];portConstraint=eastwest;" parent="iSMeBKeowd5MEmH3NNFe-1" vertex="1">
          <mxGeometry y="30" width="180" height="30" as="geometry" />
        </mxCell>
        <mxCell id="iSMeBKeowd5MEmH3NNFe-3" value="PK" style="shape=partialRectangle;connectable=0;fillColor=none;top=0;left=0;bottom=0;right=0;fontStyle=1;overflow=hidden;" parent="iSMeBKeowd5MEmH3NNFe-2" vertex="1">
          <mxGeometry width="30" height="30" as="geometry" />
        </mxCell>
        <mxCell id="iSMeBKeowd5MEmH3NNFe-4" value="ID" style="shape=partialRectangle;connectable=0;fillColor=none;top=0;left=0;bottom=0;right=0;align=left;spacingLeft=6;fontStyle=5;overflow=hidden;" parent="iSMeBKeowd5MEmH3NNFe-2" vertex="1">
          <mxGeometry x="30" width="150" height="30" as="geometry" />
        </mxCell>
        <mxCell id="iSMeBKeowd5MEmH3NNFe-5" value="" style="shape=partialRectangle;collapsible=0;dropTarget=0;pointerEvents=0;fillColor=none;top=0;left=0;bottom=0;right=0;points=[[0,0.5],[1,0.5]];portConstraint=eastwest;" parent="iSMeBKeowd5MEmH3NNFe-1" vertex="1">
          <mxGeometry y="60" width="180" height="30" as="geometry" />
        </mxCell>
        <mxCell id="iSMeBKeowd5MEmH3NNFe-6" value="" style="shape=partialRectangle;connectable=0;fillColor=none;top=0;left=0;bottom=0;right=0;editable=1;overflow=hidden;" parent="iSMeBKeowd5MEmH3NNFe-5" vertex="1">
          <mxGeometry width="30" height="30" as="geometry" />
        </mxCell>
        <mxCell id="iSMeBKeowd5MEmH3NNFe-7" value="Team ID" style="shape=partialRectangle;connectable=0;fillColor=none;top=0;left=0;bottom=0;right=0;align=left;spacingLeft=6;overflow=hidden;" parent="iSMeBKeowd5MEmH3NNFe-5" vertex="1">
          <mxGeometry x="30" width="150" height="30" as="geometry" />
        </mxCell>
        <mxCell id="iSMeBKeowd5MEmH3NNFe-8" value="" style="shape=partialRectangle;collapsible=0;dropTarget=0;pointerEvents=0;fillColor=none;top=0;left=0;bottom=0;right=0;points=[[0,0.5],[1,0.5]];portConstraint=eastwest;" parent="iSMeBKeowd5MEmH3NNFe-1" vertex="1">
          <mxGeometry y="90" width="180" height="30" as="geometry" />
        </mxCell>
        <mxCell id="iSMeBKeowd5MEmH3NNFe-9" value="" style="shape=partialRectangle;connectable=0;fillColor=none;top=0;left=0;bottom=0;right=0;editable=1;overflow=hidden;" parent="iSMeBKeowd5MEmH3NNFe-8" vertex="1">
          <mxGeometry width="30" height="30" as="geometry" />
        </mxCell>
        <mxCell id="iSMeBKeowd5MEmH3NNFe-10" value="User ID" style="shape=partialRectangle;connectable=0;fillColor=none;top=0;left=0;bottom=0;right=0;align=left;spacingLeft=6;overflow=hidden;" parent="iSMeBKeowd5MEmH3NNFe-8" vertex="1">
          <mxGeometry x="30" width="150" height="30" as="geometry" />
        </mxCell>
        <mxCell id="iSMeBKeowd5MEmH3NNFe-11" value="" style="shape=partialRectangle;collapsible=0;dropTarget=0;pointerEvents=0;fillColor=none;top=0;left=0;bottom=0;right=0;points=[[0,0.5],[1,0.5]];portConstraint=eastwest;" parent="iSMeBKeowd5MEmH3NNFe-1" vertex="1">
          <mxGeometry y="120" width="180" height="30" as="geometry" />
        </mxCell>
        <mxCell id="iSMeBKeowd5MEmH3NNFe-12" value="" style="shape=partialRectangle;connectable=0;fillColor=none;top=0;left=0;bottom=0;right=0;editable=1;overflow=hidden;" parent="iSMeBKeowd5MEmH3NNFe-11" vertex="1">
          <mxGeometry width="30" height="30" as="geometry" />
        </mxCell>
        <mxCell id="iSMeBKeowd5MEmH3NNFe-13" value="Email" style="shape=partialRectangle;connectable=0;fillColor=none;top=0;left=0;bottom=0;right=0;align=left;spacingLeft=6;overflow=hidden;" parent="iSMeBKeowd5MEmH3NNFe-11" vertex="1">
          <mxGeometry x="30" width="150" height="30" as="geometry" />
        </mxCell>
        <mxCell id="s58gVU0sh_EnuM7iIKpC-1" value="" style="shape=partialRectangle;collapsible=0;dropTarget=0;pointerEvents=0;fillColor=none;top=0;left=0;bottom=0;right=0;points=[[0,0.5],[1,0.5]];portConstraint=eastwest;" vertex="1" parent="s58gVU0sh_EnuM7iIKpC-4">
          <mxGeometry y="153.32999999999998" width="180" height="30" as="geometry" />
        </mxCell>
        <mxCell id="s58gVU0sh_EnuM7iIKpC-2" value="" style="shape=partialRectangle;connectable=0;fillColor=none;top=0;left=0;bottom=0;right=0;editable=1;overflow=hidden;" vertex="1" parent="s58gVU0sh_EnuM7iIKpC-1">
          <mxGeometry width="30" height="30" as="geometry" />
        </mxCell>
        <mxCell id="s58gVU0sh_EnuM7iIKpC-3" value="State" style="shape=partialRectangle;connectable=0;fillColor=none;top=0;left=0;bottom=0;right=0;align=left;spacingLeft=6;overflow=hidden;" vertex="1" parent="s58gVU0sh_EnuM7iIKpC-1">
          <mxGeometry x="30" width="150" height="30" as="geometry" />
        </mxCell>
        <mxCell id="iSMeBKeowd5MEmH3NNFe-18" value="" style="edgeStyle=entityRelationEdgeStyle;fontSize=12;html=1;endArrow=ERzeroToMany;startArrow=ERmandOne;exitX=1;exitY=0.5;exitDx=0;exitDy=0;entryX=0;entryY=0.5;entryDx=0;entryDy=0;" parent="1" source="cVKj1Lbu5gOnooN9UQbO-3" target="iSMeBKeowd5MEmH3NNFe-8" edge="1">
          <mxGeometry width="100" height="100" relative="1" as="geometry">
            <mxPoint x="260" as="sourcePoint" />
            <mxPoint x="390" y="60" as="targetPoint" />
          </mxGeometry>
        </mxCell>
        <mxCell id="iSMeBKeowd5MEmH3NNFe-19" value="" style="edgeStyle=entityRelationEdgeStyle;fontSize=12;html=1;endArrow=ERzeroToMany;startArrow=ERmandOne;exitX=1;exitY=0.5;exitDx=0;exitDy=0;entryX=1;entryY=0.5;entryDx=0;entryDy=0;" parent="1" source="cVKj1Lbu5gOnooN9UQbO-16" target="iSMeBKeowd5MEmH3NNFe-5" edge="1">
          <mxGeometry width="100" height="100" relative="1" as="geometry">
            <mxPoint x="560" y="100" as="sourcePoint" />
            <mxPoint x="690" y="-70" as="targetPoint" />
          </mxGeometry>
        </mxCell>
      </root>
    </mxGraphModel>
  </diagram>
</mxfile>
